<?xml version="1.0" encoding="utf-8"?>

<!DOCTYPE svg PUBLIC "-//W3C//DTD SVG 1.1//EN" "http://www.w3.org/Graphics/SVG/1.1/DTD/svg11.dtd">
<svg version="1.1" id="Layer_1" xmlns="http://www.w3.org/2000/svg" xmlns:xlink="http://www.w3.org/1999/xlink" x="0px" y="0px"
	 viewBox="0 0 2626 1654.091" enable-background="new 0 0 2626 1654.091" xml:space="preserve">
<g>
	<path stroke="#000000" stroke-width="0.5" d="M123.8,20.805h2378.293c20.247,1.083,40.164,8.487,55.821,21.447
		c21.436,17.251,34.448,44.136,35.086,71.616v1426.175c-0.669,18.94-6.724,37.71-17.888,53.08
		c-16.741,23.656-44.827,38.942-73.847,39.685c-5.864-1.052-11.812-0.468-17.708-0.584c-771.877-0.011-1543.754,0-2315.642,0
		c-14.022,0.297-28.107-0.605-42.086,0.457c-36.35,0.106-70.894-23.805-85.011-57.074c-4.6-10.527-7.075-21.872-7.818-33.301
		V111.626c1.211-25.759,13.193-50.849,32.844-67.612C81.81,29.983,102.63,21.899,123.8,20.805 M60.31,70.305
		c-9.571,14.096-14.468,31.241-14.043,48.258c0.021,467.396,0,934.782,0.011,1402.179c0.17,10.644-0.69,21.404,1.423,31.92
		c3.771,20.438,15.711,39.229,32.579,51.359c14.213,10.442,31.857,15.806,49.447,15.721c159.942-0.032,319.883,0.053,479.814-0.032
		c38.782-105.874,77.522-211.758,116.39-317.589c385.912,0.011,771.824,0.021,1157.725,0c3.272,2.836,4.153,7.17,5.662,11.047
		c37.444,102.188,74.899,204.375,112.332,306.563c163.458,0.021,326.915,0,490.373,0.011c12.269,0.266,24.718-1.338,36.105-6.065
		c25.25-10.006,44.678-33.291,49.862-59.953c2.284-10.877,1.635-22.031,1.731-33.046c-0.01-468.098,0.021-936.195-0.01-1404.293
		c-0.021-23.316-10.293-46.441-27.937-61.748c-14.563-12.938-33.843-20.342-53.314-20.565c-790.647,0.021-1581.305,0-2371.952,0.011
		C100.282,34.518,74.842,48.487,60.31,70.305 M736.501,1315.559c-36.966,101.455-74.229,202.792-111.376,304.173
		c454.076,0.011,908.163,0.032,1362.249-0.011c-37.083-101.465-74.282-202.899-111.493-304.321
		c-325.386,0.021-650.76,0-976.146,0.011C845.327,1315.506,790.909,1315.209,736.501,1315.559z"/>
	<path fill="#D7D1BC" stroke="#D7D1BC" stroke-width="0.5" d="M60.31,70.305c14.531-21.818,39.972-35.787,66.199-36.222
		c790.647-0.011,1581.305,0.011,2371.952-0.011c19.471,0.223,38.75,7.627,53.314,20.565c17.644,15.307,27.916,38.432,27.937,61.748
		c0.032,468.098,0,936.195,0.01,1404.293c-0.096,11.015,0.552,22.169-1.731,33.046c-5.184,26.662-24.612,49.947-49.862,59.953
		c-11.387,4.727-23.837,6.331-36.105,6.065c-163.458-0.011-326.915,0.011-490.373-0.011
		c-37.433-102.188-74.888-204.375-112.332-306.563c-1.508-3.877-2.39-8.211-5.662-11.047c-385.901,0.021-771.813,0.011-1157.725,0
		c-38.867,105.831-77.607,211.715-116.39,317.589c-159.931,0.085-319.873,0-479.814,0.032c-17.591,0.085-35.235-5.279-49.447-15.721
		c-16.868-12.131-28.808-30.922-32.579-51.359c-2.114-10.516-1.253-21.277-1.423-31.92c-0.011-467.397,0.011-934.783-0.011-1402.179
		C45.842,101.546,50.739,84.401,60.31,70.305 M181.119,173.3c-9.008,2.369-16.953,8.445-21.585,16.518
		c-3.59,6.034-4.95,13.108-4.897,20.066c-0.011,329.635-0.011,659.28-0.011,988.914c-0.074,7.436,1.615,14.988,5.725,21.266
		c5.98,9.358,16.571,15.753,27.724,16.21c745.321,0,1490.653-0.011,2235.974,0.011c14.553-0.308,27.948-10.899,32.154-24.74
		c2.411-7.202,1.424-14.85,1.625-22.275c-0.01-327.542,0.011-655.084-0.01-982.626c-0.074-17.962-15.774-34.055-33.748-34.459
		c-744.981-0.032-1489.973,0.011-2234.954-0.021C186.409,172.174,183.721,172.631,181.119,173.3z"/>
	<path stroke="#000000" stroke-width="0.5" d="M181.119,173.3c2.602-0.669,5.29-1.126,7.999-1.137
		c744.981,0.032,1489.973-0.011,2234.954,0.021c17.973,0.404,33.673,16.497,33.748,34.459c0.021,327.542,0,655.084,0.01,982.626
		c-0.202,7.425,0.786,15.073-1.625,22.275c-4.206,13.841-17.601,24.432-32.154,24.74c-745.321-0.021-1490.653-0.011-2235.974-0.011
		c-11.154-0.457-21.744-6.851-27.724-16.21c-4.111-6.278-5.8-13.83-5.725-21.266c0-329.635,0-659.28,0.011-988.914
		c-0.053-6.958,1.307-14.032,4.897-20.066C164.165,181.745,172.111,175.669,181.119,173.3 M168.765,202.172
		c-1.36,5.641-0.712,11.483-0.86,17.219c0,119.343,0,238.685,0,358.028h-1.052c-0.011,21.33-0.021,42.67,0,64
		c0.064,21.425-0.191,42.851,0.127,64.266h0.924c0,164.382-0.011,328.774,0.011,493.156c-0.531,9.815,5.492,19.768,14.967,22.923
		c3.686,1.572,7.722,1.232,11.632,1.232c741.072,0,1482.134,0,2223.206,0c3.548-0.064,7.223,0.35,10.676-0.807
		c9.22-2.581,16.178-11.589,16.167-21.202c-0.011-166.347-0.021-332.704,0-499.062c0.308-0.276,0.914-0.818,1.211-1.083
		c0.01-21.043,0.361-42.118-0.181-63.14h0.298c-0.032-21.34,0.01-42.67-0.021-64c-0.329,0-0.988,0-1.317,0
		c0.011-121.977-0.01-243.954,0.011-365.931c0.042-8.923-5.811-17.484-14.085-20.746c-5.736-2.454-12.078-1.328-18.101-1.572
		c-740.722-0.011-1481.454,0.011-2222.176-0.011C180.354,185.314,171.144,192.675,168.765,202.172z"/>
	<path fill="#FFFFFF" stroke="#FFFFFF" stroke-width="0.5" d="M168.765,202.172c2.379-9.496,11.589-16.858,21.436-16.73
		c740.722,0.021,1481.454,0,2222.176,0.011c6.023,0.244,12.365-0.882,18.101,1.572c8.275,3.261,14.128,11.823,14.085,20.746
		c-0.021,121.977,0,243.954-0.011,365.931c-146.504,0-293.008,0-439.502,0c-0.074-7.043,0.701-14.425-2.337-21.022
		c-4.568-10.941-16.061-18.462-27.916-18.281c-443.294,0.011-886.599,0-1329.894,0c-5.024,0.021-10.155-0.34-15.052,1.02
		c-9.433,2.486-17.41,9.847-20.682,19.025c-2.677,7.361-1.519,15.318-1.763,22.976c-146.504,0-292.998,0-439.502,0
		c0-119.343,0-238.685,0-358.028C168.053,213.655,167.405,207.812,168.765,202.172 M231.087,250.546
		c0.053,52.305,0,104.609,0.032,156.914c52.305,0,104.62,0.011,156.935,0c0-52.315,0.011-104.631-0.011-156.946
		C335.728,250.536,283.413,250.472,231.087,250.546 M433.199,249.728l-0.011,2.103c643.102,0.021,1286.203,0.011,1929.305,0v-2.103
		C1719.392,249.718,1076.301,249.718,433.199,249.728 M429.789,330.193c644.228-0.032,1288.466,0,1932.704-0.011
		c0-0.531,0-1.593,0-2.124c-643.006-0.011-1286.012,0.032-1929.029-0.021C432.041,328.249,428.345,327.229,429.789,330.193
		 M426.21,408.215c645.428,0.096,1290.856,0.021,1936.284,0.043c0-0.531,0-1.593,0-2.124
		c-645.375-0.021-1290.739,0.032-1936.114-0.021C426.337,406.642,426.252,407.694,426.21,408.215 M422.842,484.483v2.103
		c646.554,0.011,1293.097,0.011,1939.652,0v-2.103C1715.94,484.473,1069.396,484.473,422.842,484.483z"/>
	<path fill="#E91D24" stroke="#E91D24" stroke-width="0.5" d="M231.087,250.546c52.326-0.074,104.641-0.011,156.957-0.032
		c0.021,52.315,0.011,104.631,0.011,156.946c-52.315,0.011-104.631,0-156.935,0C231.087,355.156,231.14,302.851,231.087,250.546
		 M270.135,280.002c0.011,33.631,0.011,67.261,0,100.892c18.685-0.074,37.37,0.329,56.033-0.489
		c7.372-0.223,14.978-2.603,20.151-8.073c7.574-7.946,10.548-20.395,6.342-30.678c-2.932-7.117-9.518-12.28-16.879-14.192
		c7.287-3.399,12.566-10.622,13.501-18.621c1.455-9.008-2.911-18.356-10.325-23.518c-6.735-4.939-15.402-5.099-23.401-5.332
		C300.419,280.002,285.282,279.97,270.135,280.002z"/>
	<path stroke="#000000" stroke-width="0.5" d="M433.199,249.728c643.102-0.011,1286.193-0.011,1929.295,0v2.103
		c-643.102,0.011-1286.204,0.021-1929.305,0L433.199,249.728z"/>
	<path fill="#F3F3F4" stroke="#F3F3F4" stroke-width="0.5" d="M270.135,280.002c15.148-0.032,30.284,0,45.421-0.011
		c7.999,0.234,16.667,0.393,23.401,5.332c7.414,5.162,11.78,14.51,10.325,23.518c-0.935,7.999-6.214,15.222-13.501,18.621
		c7.361,1.912,13.947,7.075,16.879,14.192c4.207,10.283,1.232,22.732-6.342,30.678c-5.173,5.471-12.779,7.85-20.151,8.073
		c-18.664,0.818-37.348,0.414-56.033,0.489C270.145,347.263,270.145,313.633,270.135,280.002 M290.54,297.349
		c0.127,7.584,0,15.169,0.074,22.753c8.647-0.127,17.304,0.244,25.94-0.266c3.505-0.138,7.202-1.009,9.826-3.484
		c4.844-4.504,4.196-13.554-1.508-17.06c-3.771-2.167-8.285-1.88-12.471-2.04C305.114,297.317,297.817,297.136,290.54,297.349
		 M290.604,337.353c-0.042,8.742,0.032,17.484-0.042,26.227c10.081-0.011,20.183,0.372,30.253-0.297
		c4.419-0.181,8.933-2.348,11.122-6.32c1.997-4.111,1.848-9.252-0.489-13.204c-2.252-3.548-6.427-5.396-10.495-5.81
		C310.872,336.864,300.717,337.533,290.604,337.353z"/>
	<path fill="#E91D24" stroke="#E91D24" stroke-width="0.5" d="M290.54,297.349c7.276-0.212,14.574-0.032,21.861-0.096
		c4.185,0.159,8.7-0.127,12.471,2.04c5.704,3.505,6.352,12.556,1.508,17.06c-2.624,2.475-6.32,3.346-9.826,3.484
		c-8.636,0.51-17.293,0.138-25.94,0.266C290.54,312.517,290.668,304.933,290.54,297.349z"/>
	<path stroke="#000000" stroke-width="0.5" d="M429.789,330.193c-1.445-2.964,2.252-1.944,3.675-2.156
		c643.017,0.053,1286.023,0.011,1929.029,0.021c0,0.531,0,1.593,0,2.124C1718.255,330.193,1074.017,330.161,429.789,330.193z"/>
	<path fill="#E91D24" stroke="#E91D24" stroke-width="0.5" d="M290.604,337.353c10.113,0.181,20.268-0.489,30.348,0.595
		c4.068,0.414,8.243,2.263,10.495,5.81c2.337,3.952,2.486,9.093,0.489,13.204c-2.188,3.973-6.703,6.14-11.122,6.32
		c-10.07,0.669-20.172,0.287-30.253,0.297C290.636,354.837,290.561,346.095,290.604,337.353z"/>
	<path stroke="#000000" stroke-width="0.5" d="M426.21,408.215c0.042-0.52,0.127-1.572,0.17-2.103
		c645.375,0.053,1290.739,0,1936.114,0.021c0,0.531,0,1.593,0,2.124C1717.066,408.236,1071.638,408.31,426.21,408.215z"/>
	<path stroke="#000000" stroke-width="0.5" d="M422.842,484.483c646.554-0.011,1293.097-0.011,1939.652,0v2.103
		c-646.554,0.011-1293.098,0.011-1939.652,0V484.483z"/>
	<path stroke="#000000" stroke-width="0.5" d="M629.852,535.418c4.897-1.36,10.028-0.999,15.052-1.02
		c443.294,0,886.599,0.011,1329.894,0c11.855-0.181,23.348,7.34,27.916,18.281c3.038,6.596,2.263,13.979,2.337,21.022
		c-0.011,21.34,0,42.67-0.011,64.011c-0.043,21.415-0.032,42.83,0,64.255c0,81.686,0.032,163.383-0.011,245.08
		c-0.584,15.498-14.839,28.479-30.242,28.171c-441.882,0.021-883.752,0-1325.634,0.011c-7.414-0.149-15.116,0.775-22.19-1.976
		c-11.504-4.249-19.705-15.997-19.545-28.287c-0.021-79.764-0.011-159.517-0.011-239.28c0-21.425-0.011-42.851,0-64.276
		c0-21.33,0-42.66,0-63.989c0.244-7.659-0.914-15.615,1.763-22.976C612.442,545.265,620.419,537.904,629.852,535.418
		 M636.629,547.984c-8.54,0.435-15.796,8.222-15.668,16.773c-0.021,126.704-0.011,253.408-0.011,380.112
		c-0.106,9.241,8.307,17.23,17.506,16.815c445.111,0,890.211-0.011,1335.322,0c6.926,0.244,13.873-3.909,16.507-10.389
		c1.657-3.675,1.168-7.754,1.222-11.642c0-123.22,0-246.44,0-369.66c0.064-4.823,0.297-10.102-2.571-14.266
		c-3.388-5.449-9.974-8.169-16.242-7.797C1527.339,547.984,1081.984,547.878,636.629,547.984z"/>
	<path fill="#D8D3BC" stroke="#D8D3BC" stroke-width="0.5" d="M636.629,547.984c445.355-0.106,890.71,0,1336.065-0.053
		c6.267-0.372,12.853,2.348,16.242,7.797c2.868,4.164,2.635,9.443,2.571,14.266c0,123.22,0,246.44,0,369.66
		c-0.053,3.888,0.436,7.967-1.222,11.642c-2.634,6.48-9.581,10.633-16.507,10.389c-445.111-0.011-890.211,0-1335.322,0
		c-9.199,0.414-17.612-7.574-17.506-16.815c0-126.704-0.011-253.408,0.011-380.112C620.833,556.206,628.088,548.42,636.629,547.984
		 M813.269,599.513c-29.392,2.836-57.945,14.096-81.219,32.281c-28.967,22.509-49.925,55.268-57.637,91.193
		c-8.062,36.647-2.698,76.163,15.328,109.135c14.393,26.577,36.552,48.895,63.044,63.469c25.589,14.17,55.226,20.884,84.427,19.29
		c25.642-1.232,50.934-8.955,72.923-22.211c35.787-21.266,62.502-57.212,72.36-97.673c7.213-29.01,5.98-60.07-3.569-88.4
		c-10.506-31.517-31.336-59.411-58.349-78.723C889.803,605.834,850.893,595.689,813.269,599.513 M1770.316,599.503
		c-11.759,1.158-23.412,3.569-34.597,7.361c-35.373,11.493-65.923,36.361-85.16,68.1c-20.682,33.705-27.703,75.345-19.63,114.021
		c7.924,39.229,31.612,74.867,64.446,97.684c32.388,22.849,73.571,32.59,112.778,26.875c41.916-5.683,80.847-29.339,105.597-63.575
		c23.975-32.483,34.406-74.421,28.861-114.382c-5.205-40.1-26.843-77.597-58.466-102.687
		C1852.469,607.491,1810.67,595.371,1770.316,599.503 M1035.224,608.755c0,97.376,0,194.741,0,292.116
		c172.178,0,344.347,0.011,516.515-0.011c0-97.365,0-194.73,0-292.095C1379.571,608.744,1207.403,608.755,1035.224,608.755z"/>
	<path fill="#E91D24" stroke="#E91D24" stroke-width="0.5" d="M2444.552,573.701c0.329,0,0.988,0,1.317,0
		c0.032,21.33-0.011,42.66,0.021,64h-0.298c-146.844,0.011-293.699-0.011-440.554,0.011c0.011-21.34,0-42.67,0.011-64.011
		C2151.543,573.701,2298.048,573.701,2444.552,573.701z"/>
	<path fill="#E91D24" stroke="#E91D24" stroke-width="0.5" d="M166.853,577.419h1.052c146.504,0,292.998,0,439.502,0
		c0,21.33,0,42.66,0,63.989c-146.855,0.021-293.699,0-440.554,0.011C166.832,620.089,166.842,598.749,166.853,577.419z"/>
	<path stroke="#000000" stroke-width="0.5" d="M813.269,599.513c37.625-3.824,76.534,6.32,107.308,28.362
		c27.013,19.312,47.843,47.206,58.349,78.723c9.55,28.33,10.782,59.39,3.569,88.4c-9.858,40.461-36.573,76.407-72.36,97.673
		c-21.988,13.257-47.28,20.979-72.923,22.211c-29.201,1.593-58.838-5.12-84.427-19.29c-26.492-14.574-48.651-36.892-63.044-63.469
		c-18.026-32.972-23.391-72.487-15.328-109.135c7.712-35.925,28.67-68.684,57.637-91.193
		C755.324,613.609,783.877,602.35,813.269,599.513 M812.164,613.28c-14.84,1.742-29.424,5.726-43.01,11.95
		c-35.968,16.104-64.414,47.801-77.097,85.054c-12.981,37.518-9.465,80.369,9.613,115.211
		c14.871,27.618,38.952,50.138,67.527,63.086c31.272,14.404,67.771,16.911,100.743,7.021c42.033-12.248,77.469-44.731,93.445-85.468
		c11.802-29.498,13.416-62.927,4.461-93.413c-8.455-29.498-26.8-55.874-51.009-74.633
		C887.445,619.367,849.024,608.819,812.164,613.28z"/>
	<path stroke="#000000" stroke-width="0.5" d="M1770.316,599.503c40.354-4.132,82.154,7.988,113.83,33.397
		c31.623,25.09,53.261,62.587,58.466,102.687c5.545,39.961-4.886,81.899-28.861,114.382c-24.75,34.236-63.681,57.892-105.597,63.575
		c-39.207,5.715-80.39-4.026-112.778-26.875c-32.834-22.817-56.522-58.455-64.446-97.684c-8.073-38.676-1.052-80.316,19.63-114.021
		c19.237-31.74,49.787-56.607,85.16-68.1C1746.904,603.072,1758.557,600.661,1770.316,599.503 M1776.148,612.622
		c-19.609,1.349-38.974,6.628-56.426,15.7c-32.313,16.444-57.722,45.708-69.97,79.795c-14.202,38.793-10.442,83.63,10.027,119.513
		c20.023,35.797,55.789,62.407,95.995,70.756c41.003,8.997,85.627-1.264,118.61-27.215c31.464-24.23,52.241-61.875,55.534-101.497
		c3.898-40.843-10.984-82.812-39.345-112.396C1861.626,626.293,1818.404,609.552,1776.148,612.622z"/>
	<path stroke="#000000" stroke-width="0.5" d="M1035.224,608.755c172.178,0,344.347-0.011,516.515,0.011
		c0,97.365,0,194.73,0,292.095c-172.168,0.021-344.336,0.011-516.515,0.011C1035.224,803.496,1035.224,706.131,1035.224,608.755
		 M1048.534,621.682c-0.042,88.973-0.064,177.957,0.011,266.941c34.332,0.085,68.663,0.011,102.995,0.032
		c10.123-0.191,20.299,0.393,30.412-0.297l0.255-1.02c34.703-0.021,69.407-0.011,104.121-0.011l0.181,1.105
		c22.955,0.531,45.942,0.064,68.918,0.234c61.621-0.043,123.241,0.042,184.862-0.053c0.053-88.973,0.053-177.957,0-266.941
		c-81.442-0.35-162.905-0.011-244.347-0.17c-1.668,0.266-3.835-0.595-5.077,0.807c-38.591-0.011-77.193-0.032-115.784,0.011
		l-0.276-0.754C1132.717,621.576,1090.62,621.353,1048.534,621.682z"/>
	<path fill="#FFFFFF" stroke="#FFFFFF" stroke-width="0.5" d="M812.164,613.28c36.86-4.461,75.281,6.087,104.673,28.808
		c24.208,18.759,42.553,45.135,51.009,74.633c8.955,30.486,7.34,63.915-4.461,93.413c-15.976,40.737-51.412,73.22-93.445,85.468
		c-32.972,9.889-69.471,7.383-100.743-7.021c-28.574-12.949-52.655-35.468-67.527-63.086
		c-19.078-34.841-22.594-77.692-9.613-115.211c12.683-37.253,41.13-68.95,77.097-85.054
		C782.74,619.006,797.325,615.022,812.164,613.28 M813.056,620.556c-25.302,2.836-49.713,12.991-69.598,28.893
		c-28.468,22.445-47.355,56.617-51.009,92.702c-4.005,35.606,6.671,72.604,29.19,100.488c20.427,25.696,50.34,43.669,82.685,49.384
		c32.207,5.895,66.464-0.127,94.593-16.932c19.821-11.748,36.605-28.542,48.279-48.406c15.987-26.726,22.116-59.05,17.559-89.823
		c-4.599-32.271-21.319-62.598-46.037-83.811C890.122,628.013,850.766,616,813.056,620.556z"/>
	<path fill="#FFFFFF" stroke="#FFFFFF" stroke-width="0.5" d="M1776.148,612.622c42.256-3.07,85.478,13.671,114.425,44.657
		c28.362,29.583,43.244,71.553,39.345,112.396c-3.293,39.622-24.07,77.267-55.534,101.497
		c-32.983,25.951-77.607,36.212-118.61,27.215c-40.206-8.349-75.971-34.958-95.995-70.756
		c-20.469-35.882-24.23-80.72-10.027-119.513c12.248-34.087,37.656-63.352,69.97-79.795
		C1737.174,619.25,1756.539,613.971,1776.148,612.622 M1770.167,620.525c-43.584,4.621-83.853,31.803-104.694,70.32
		c-13.384,24.123-18.94,52.379-16.199,79.806c3.293,35.468,21.319,69.205,48.789,91.852c31.474,26.63,75.398,37.433,115.689,28.861
		c38.814-7.733,73.422-33.482,92.383-68.164c19.535-34.969,22.36-78.659,7.754-115.933c-7.064-18.228-18.058-34.948-32.133-48.534
		C1852.873,629.979,1810.596,615.67,1770.167,620.525z"/>
	<path fill="#ACA491" stroke="#ACA491" stroke-width="0.5" d="M813.056,620.556c37.71-4.557,77.066,7.457,105.661,32.494
		c24.718,21.213,41.438,51.54,46.037,83.811c4.557,30.773-1.572,63.097-17.559,89.823c-11.674,19.864-28.457,36.658-48.279,48.406
		c-28.128,16.805-62.385,22.828-94.593,16.932c-32.345-5.715-62.258-23.688-82.685-49.384
		c-22.519-27.884-33.195-64.882-29.19-100.488c3.654-36.084,22.541-70.257,51.009-92.702
		C763.344,633.548,787.754,623.393,813.056,620.556 M842.438,636.819c-0.032,10.644,0.011,21.298-0.021,31.942
		c-9.741-0.021-19.492,0.096-29.233-0.064c0.064-10.527,0.021-21.054,0.021-31.58c-22.042,2.804-43.265,11.844-60.484,25.908
		c-7.712,6.575-15.349,13.66-20.831,22.233c9.826,5.343,19.333,11.281,29.148,16.656c-4.302,8.073-8.923,15.997-13.692,23.805
		c-9.73-5.853-19.62-11.43-29.435-17.113c-13.225,30.391-13.321,66.273,0.074,96.632c9.943-5.545,19.62-11.547,29.605-16.996
		c4.568,7.786,8.923,15.7,13.66,23.38c-9.645,6.097-19.906,11.207-29.467,17.421c19.258,26.036,49.235,43.764,81.421,47.726
		c0-10.527,0.053-21.054-0.032-31.57c9.741-0.212,19.492-0.053,29.254-0.085c0.011,10.644-0.021,21.287,0.011,31.942
		c33.068-3.42,64.064-21.457,83.747-48.194c-9.836-5.683-19.641-11.419-29.53-16.996c4.483-7.935,9.04-15.827,13.629-23.699
		c9.889,5.63,19.673,11.44,29.626,16.953c13.352-30.38,13.289-66.167-0.032-96.536c-9.868,5.694-19.736,11.398-29.594,17.113
		c-4.568-7.892-9.167-15.753-13.618-23.699c9.889-5.587,19.683-11.313,29.509-16.996
		C906.512,658.266,875.495,640.197,842.438,636.819z"/>
	<path fill="#ACA491" stroke="#ACA491" stroke-width="0.5" d="M1770.167,620.525c40.429-4.854,82.706,9.454,111.589,38.209
		c14.075,13.586,25.069,30.306,32.133,48.534c14.606,37.274,11.78,80.964-7.754,115.933c-18.961,34.682-53.569,60.431-92.383,68.164
		c-40.291,8.572-84.214-2.231-115.689-28.861c-27.469-22.647-45.496-56.384-48.789-91.852c-2.74-27.427,2.815-55.683,16.199-79.806
		C1686.314,652.328,1726.583,625.145,1770.167,620.525 M1688.693,684.928c9.656,5.917,19.598,11.355,29.35,17.134
		c-4.515,7.903-9.029,15.806-13.639,23.656c-9.826-5.768-19.726-11.419-29.562-17.155c-13.257,30.433-13.352,66.337,0.106,96.717
		c9.879-5.672,19.651-11.557,29.626-17.081c4.366,7.967,9.125,15.7,13.544,23.635c-9.804,5.704-19.736,11.207-29.435,17.113
		c19.141,26.11,49.182,43.786,81.314,47.801c0.064-10.548,0.011-21.085,0.021-31.623c9.826-0.053,19.651-0.021,29.477-0.011
		c0.021,10.633-0.011,21.277,0.011,31.92c32.993-3.452,63.968-21.468,83.577-48.173c-9.815-5.736-19.673-11.377-29.509-17.06
		c4.525-7.892,9.071-15.785,13.65-23.645c9.879,5.651,19.683,11.451,29.636,16.985c13.342-30.401,13.204-66.146,0.011-96.568
		c-9.932,5.63-19.747,11.472-29.69,17.091c-4.525-7.871-9.114-15.711-13.575-23.603c9.804-5.747,19.715-11.324,29.509-17.102
		c-19.694-26.641-50.594-44.667-83.598-48.141c-0.042,10.644,0.011,21.298-0.021,31.942c-9.826,0-19.651,0.043-29.477-0.011
		c-0.011-10.559,0.032-21.107-0.021-31.665C1737.875,641.164,1707.835,658.818,1688.693,684.928z"/>
	<path fill="#222222" stroke="#222222" stroke-width="0.5" d="M1048.534,621.682c42.086-0.329,84.183-0.106,126.269-0.117
		l0.276,0.754c28.649,85.022,30.614,178.531,7.128,265.018l-0.255,1.02c-10.113,0.69-20.289,0.106-30.412,0.297
		c-34.332-0.021-68.663,0.053-102.995-0.032C1048.47,799.64,1048.491,710.656,1048.534,621.682z"/>
	<path fill="#FFFFFF" stroke="#FFFFFF" stroke-width="0.5" d="M1175.079,622.32c38.591-0.043,77.193-0.021,115.784-0.011
		c-18.972,86.891-20.289,177.511-4.536,265.018c-34.714,0-69.417-0.011-104.121,0.011
		C1205.692,800.851,1203.727,707.342,1175.079,622.32z"/>
	<path fill="#222222" stroke="#222222" stroke-width="0.5" d="M1290.863,622.309c1.243-1.402,3.41-0.542,5.077-0.807
		c81.442,0.159,162.905-0.181,244.347,0.17c0.053,88.984,0.053,177.968,0,266.941c-61.621,0.096-123.241,0.011-184.862,0.053
		c-22.976-0.17-45.963,0.297-68.918-0.234l-0.181-1.105C1270.574,799.82,1271.891,709.201,1290.863,622.309z"/>
	<path fill="#3A3A3C" stroke="#3A3A3C" stroke-width="0.5" d="M842.438,636.819c33.057,3.378,64.074,21.447,83.736,48.183
		c-9.826,5.683-19.62,11.408-29.509,16.996c4.451,7.945,9.05,15.806,13.618,23.699c9.858-5.715,19.726-11.419,29.594-17.113
		c13.321,30.37,13.384,66.156,0.032,96.536c-9.953-5.513-19.736-11.323-29.626-16.953c-4.589,7.871-9.146,15.764-13.629,23.699
		c9.889,5.577,19.694,11.313,29.53,16.996c-19.683,26.737-50.68,44.773-83.747,48.194c-0.032-10.654,0-21.298-0.011-31.942
		c-9.762,0.032-19.513-0.128-29.254,0.085c0.085,10.516,0.032,21.043,0.032,31.57c-32.186-3.962-62.162-21.691-81.421-47.726
		c9.56-6.214,19.821-11.324,29.467-17.421c-4.738-7.68-9.093-15.594-13.66-23.38c-9.985,5.449-19.662,11.451-29.605,16.996
		c-13.395-30.359-13.299-66.241-0.074-96.632c9.815,5.683,19.705,11.26,29.435,17.113c4.769-7.807,9.39-15.732,13.692-23.805
		c-9.815-5.375-19.322-11.313-29.148-16.656c5.481-8.572,13.119-15.657,20.831-22.233c17.219-14.064,38.443-23.104,60.484-25.908
		c0,10.527,0.043,21.054-0.021,31.58c9.741,0.159,19.492,0.042,29.233,0.064C842.449,658.117,842.406,647.463,842.438,636.819
		 M846.135,672.479c-12.205,0.011-24.421,0.011-36.637,0c0-10.389,0-20.777,0-31.156c-28.256,4.653-54.652,20.076-72.285,42.681
		c9.666,5.524,19.312,11.1,28.914,16.741c-5.736,10.006-11.462,20.034-17.304,29.987c-9.688-5.641-19.407-11.217-29.084-16.879
		c-10.92,27.321-10.984,58.827,0.074,86.116c9.698-5.598,19.365-11.26,29.074-16.837c5.779,10.006,11.568,20.013,17.389,29.998
		c-9.688,5.513-19.258,11.26-29.02,16.656c17.442,22.785,44.03,38.028,72.243,42.776c0-10.389-0.011-20.788,0-31.166
		c12.216-0.011,24.432-0.011,36.637,0c0.053,10.527-0.085,21.054,0.074,31.591c29.042-4.345,56.32-19.896,74.41-43.095
		c-9.656-5.609-19.343-11.143-28.989-16.752c5.747-10.017,11.493-20.023,17.304-30.008c9.709,5.577,19.386,11.207,29.137,16.73
		c11.015-27.268,10.941-58.71-0.011-85.988c-9.698,5.64-19.428,11.217-29.116,16.879c-5.8-9.996-11.547-20.002-17.315-30.008
		c9.645-5.63,19.312-11.185,28.989-16.751c-18.09-23.199-45.39-38.857-74.474-43.074
		C846.135,651.436,846.145,661.963,846.135,672.479z"/>
	<path fill="#3A3A3C" stroke="#3A3A3C" stroke-width="0.5" d="M1688.693,684.928c19.141-26.11,49.182-43.764,81.304-47.843
		c0.053,10.559,0.011,21.107,0.021,31.665c9.826,0.053,19.651,0.011,29.477,0.011c0.032-10.644-0.021-21.298,0.021-31.942
		c33.004,3.474,63.904,21.5,83.598,48.141c-9.794,5.779-19.704,11.355-29.509,17.102c4.461,7.892,9.05,15.732,13.575,23.603
		c9.943-5.619,19.758-11.462,29.69-17.091c13.193,30.423,13.331,66.167-0.011,96.568c-9.953-5.534-19.758-11.334-29.636-16.985
		c-4.578,7.861-9.125,15.753-13.65,23.645c9.836,5.683,19.694,11.323,29.509,17.06c-19.609,26.705-50.584,44.72-83.577,48.173
		c-0.021-10.644,0.011-21.287-0.011-31.92c-9.826-0.011-19.651-0.043-29.477,0.011c-0.011,10.537,0.042,21.075-0.021,31.623
		c-32.133-4.015-62.173-21.691-81.314-47.801c9.698-5.906,19.63-11.408,29.435-17.113c-4.419-7.935-9.178-15.668-13.544-23.635
		c-9.974,5.524-19.747,11.408-29.626,17.081c-13.459-30.38-13.363-66.284-0.106-96.717c9.836,5.736,19.736,11.387,29.562,17.155
		c4.61-7.85,9.125-15.753,13.639-23.656C1708.292,696.284,1698.349,690.845,1688.693,684.928 M1694.143,683.802
		c9.496,5.874,19.333,11.207,28.946,16.932c-5.789,9.996-11.494,20.034-17.325,30.008c-9.698-5.641-19.386-11.302-29.158-16.815
		c-10.824,27.353-10.814,58.763,0.064,86.095c9.698-5.63,19.396-11.26,29.105-16.89c5.821,9.974,11.621,19.96,17.368,29.987
		c-9.624,5.63-19.269,11.207-28.967,16.709c17.58,22.711,44.094,38.124,72.392,42.723c0.011-10.389,0-20.777,0.011-31.156
		c12.12-0.011,24.251-0.011,36.382,0c0,10.516-0.011,21.032,0,31.559c29.19-4.143,56.363-19.959,74.644-43.031
		c-9.688-5.609-19.396-11.185-29.073-16.805c5.81-9.964,11.515-20.002,17.325-29.966c9.751,5.555,19.46,11.196,29.201,16.794
		c10.835-27.353,11.026-58.816-0.138-86.095c-9.571,5.757-19.375,11.1-28.925,16.879c-6.055-9.847-11.547-20.034-17.463-29.966
		c9.656-5.662,19.386-11.207,29.073-16.826c-18.292-23.104-45.475-38.857-74.665-43.074c0.032,10.537,0.011,21.075,0.021,31.612
		c-12.131,0.011-24.261,0.011-36.382,0c-0.011-10.389,0-20.777,0-31.156C1738.215,645.806,1712.063,661.453,1694.143,683.802z"/>
	<path fill="#301C0F" stroke="#301C0F" stroke-width="0.5" d="M2005.039,637.712c146.855-0.021,293.71,0,440.554-0.011
		c0.542,21.022,0.191,42.097,0.181,63.14c-0.297,0.266-0.903,0.807-1.211,1.083c-146.504,0.096-293.009,0.021-439.523,0.042
		C2005.007,680.541,2004.997,659.126,2005.039,637.712z"/>
	<path fill="#301C0F" stroke="#301C0F" stroke-width="0.5" d="M166.853,641.419c146.855-0.011,293.699,0.011,440.554-0.011
		c-0.011,21.425,0,42.851,0,64.276c-146.494,0-292.998,0-439.502,0h-0.924C166.662,684.27,166.917,662.844,166.853,641.419z"/>
	<path fill="#FFFFFF" stroke="#FFFFFF" stroke-width="0.5" d="M846.135,672.479c0.011-10.516,0-21.043,0.011-31.559
		c29.084,4.217,56.384,19.875,74.474,43.074c-9.677,5.566-19.343,11.122-28.989,16.751c5.768,10.006,11.515,20.013,17.315,30.008
		c9.688-5.662,19.418-11.238,29.116-16.879c10.952,27.278,11.026,58.721,0.011,85.988c-9.751-5.524-19.428-11.154-29.137-16.73
		c-5.81,9.985-11.557,19.991-17.304,30.008c9.645,5.609,19.333,11.143,28.989,16.752c-18.09,23.199-45.368,38.75-74.41,43.095
		c-0.159-10.537-0.021-21.064-0.074-31.591c-12.205-0.011-24.421-0.011-36.637,0c-0.011,10.378,0,20.777,0,31.166
		c-28.213-4.748-54.801-19.991-72.243-42.776c9.762-5.396,19.333-11.143,29.02-16.656c-5.821-9.985-11.61-19.991-17.389-29.998
		c-9.709,5.577-19.375,11.239-29.074,16.837c-11.058-27.289-10.994-58.795-0.074-86.116c9.677,5.662,19.397,11.239,29.084,16.879
		c5.842-9.953,11.568-19.981,17.304-29.987c-9.603-5.64-19.248-11.217-28.914-16.741c17.633-22.604,44.03-38.028,72.285-42.681
		c0,10.378,0,20.767,0,31.156C821.714,672.489,833.929,672.489,846.135,672.479z"/>
	<path fill="#FFFFFF" stroke="#FFFFFF" stroke-width="0.5" d="M1694.143,683.802c17.92-22.35,44.072-37.996,72.434-42.479
		c0,10.378-0.011,20.767,0,31.156c12.12,0.011,24.251,0.011,36.382,0c-0.011-10.537,0.011-21.075-0.021-31.612
		c29.19,4.217,56.373,19.97,74.665,43.074c-9.688,5.619-19.418,11.164-29.073,16.826c5.917,9.932,11.408,20.119,17.463,29.966
		c9.55-5.779,19.354-11.122,28.925-16.879c11.164,27.278,10.973,58.742,0.138,86.095c-9.741-5.598-19.45-11.239-29.201-16.794
		c-5.81,9.964-11.515,20.002-17.325,29.966c9.677,5.619,19.386,11.196,29.073,16.805c-18.281,23.072-45.453,38.889-74.644,43.031
		c-0.011-10.527,0-21.043,0-31.559c-12.131-0.011-24.261-0.011-36.382,0c-0.011,10.378,0,20.767-0.011,31.156
		c-28.298-4.6-54.812-20.013-72.392-42.723c9.698-5.502,19.344-11.079,28.967-16.709c-5.747-10.028-11.547-20.013-17.368-29.987
		c-9.709,5.63-19.407,11.26-29.105,16.89c-10.877-27.331-10.888-58.742-0.064-86.095c9.773,5.513,19.46,11.175,29.158,16.815
		c5.832-9.974,11.536-20.013,17.325-30.008C1713.475,695.009,1703.639,689.677,1694.143,683.802z"/>
	<path fill="#FFFFFF" stroke="#FFFFFF" stroke-width="0.5" d="M2005.039,701.967c146.515-0.021,293.019,0.053,439.523-0.042
		c-0.021,166.358-0.011,332.715,0,499.062c0.011,9.613-6.947,18.621-16.167,21.202c-3.452,1.158-7.128,0.744-10.676,0.807
		c-741.072,0-1482.134,0-2223.206,0c-3.909,0-7.946,0.34-11.632-1.232c-9.475-3.155-15.498-13.108-14.967-22.923
		c-0.021-164.382-0.011-328.774-0.011-493.156c146.504,0,293.008,0,439.502,0c0,79.764-0.011,159.517,0.011,239.28
		c-0.159,12.29,8.041,24.039,19.545,28.287c7.075,2.751,14.776,1.827,22.19,1.976c441.881-0.011,883.752,0.011,1325.634-0.011
		c15.402,0.308,29.658-12.673,30.242-28.171C2005.071,865.35,2005.039,783.653,2005.039,701.967 M2043.025,726.143
		c0,10.261,0,20.522,0,30.784c1.296,0,2.624,0,3.983,0.011c-0.011-7.999,0.011-16.008-0.011-24.007
		c5.194,8.031,10.453,16.019,15.711,24.017c1.381-0.021,2.783-0.021,4.228-0.021c-0.021-10.261-0.021-20.523,0-30.784
		c-1.36-0.011-2.688-0.021-3.994-0.011c0,7.999-0.021,16.008,0.011,24.007c-5.205-8.031-10.452-16.029-15.711-24.017
		C2045.808,726.122,2044.406,726.133,2043.025,726.143 M2097.188,726.143c-0.021,1.317-0.01,2.634,0.021,3.973
		c1.2-0.011,2.443-0.011,3.697,0c-0.021-1.338-0.011-2.656,0.021-3.973C2099.653,726.133,2098.41,726.133,2097.188,726.143
		 M464.004,728.82c-0.011,1.572,0,3.155,0,4.748c1.508-0.011,3.017-0.011,4.536,0c-0.032-1.625-0.064-3.24-0.096-4.833
		C466.957,728.756,465.481,728.778,464.004,728.82 M251.025,765.425c1.593-0.011,3.187-0.011,4.78,0.011
		c0.011-9.242-0.032-18.483,0.032-27.724c0.616,0.457,1.137,1.02,1.551,1.678c5.63,8.7,11.26,17.399,16.996,26.025
		c1.678,0,3.367,0.011,5.056,0.032c0-12.226,0-24.442,0-36.658c-1.593,0-3.187,0-4.78,0c0.011,9.465-0.021,18.929,0.021,28.404
		c-6.235-9.454-12.343-18.993-18.632-28.404c-1.678-0.011-3.346-0.011-5.014-0.011C251.004,740.993,251.036,753.209,251.025,765.425
		 M403.988,765.425c1.498,0,3.006,0,4.515,0.011c0-12.216,0-24.432,0-36.637c-1.126-0.011-3.378-0.021-4.493-0.021
		C403.966,740.993,404.009,753.209,403.988,765.425 M430.012,728.799c0,12.205,0,24.421,0,36.637
		c6.777-0.276,13.671,0.648,20.363-0.659c5.98-1.052,9.38-8.201,7.138-13.66c-1.073-2.656-3.537-4.376-6.14-5.301
		c2.188-1.402,4.238-3.314,4.748-5.97c1.222-5.014-2.879-10.102-7.839-10.729C442.228,728.406,436.099,728.958,430.012,728.799
		 M2078.026,734.896c-6.82,3.017-7.616,12.577-4.132,18.387c3.962,6.055,14.16,5.407,17.506-0.956
		c2.273-5.332,1.976-12.832-3.102-16.475C2085.344,733.77,2081.308,733.558,2078.026,734.896 M2097.199,734.63
		c0,7.436,0,14.871,0,22.296c1.211,0,2.454,0,3.718,0.011c-0.01-7.436-0.01-14.871,0-22.296
		C2099.653,734.63,2098.41,734.63,2097.199,734.63 M2105.941,741.089c0.319,4.653,5.513,5.439,9.104,6.48
		c1.923,0.627,5.608,1.062,4.95,3.952c-2.093,4.642-10.346,3.346-11.079-1.742c-0.892,0.127-2.666,0.404-3.559,0.531
		c0.786,7.043,9.741,8.955,15.063,5.768c3.091-1.668,4.493-6.161,2.294-9.071c-3.293-3.952-9.688-2.443-13.044-6.119
		c-0.106-5.216,8.891-4.695,9.56,0.117c1.179-0.191,2.39-0.382,3.612-0.574C2121.864,731.656,2105.559,731.837,2105.941,741.089
		 M2128.992,737.87c-2.921,4.228-3.145,10.166-0.786,14.691c3.899,7.329,17.049,6.437,19.099-1.955
		c-0.871-0.138-2.613-0.414-3.495-0.552c-1.392,3.335-5.279,5.162-8.689,3.888c-3.144-0.839-4.451-4.164-4.929-7.053
		c5.757-0.106,11.515-0.011,17.282-0.064c-0.095-3.452-0.499-7.298-3.134-9.826C2140.305,732.729,2132.508,733.207,2128.992,737.87
		 M293.44,739.209c-7.563,2.911-8.742,12.789-6.278,19.545c2.507,7.542,13.182,9.486,18.897,4.451
		c4.685-4.09,4.939-11.196,3.378-16.794C307.674,739.782,299.548,736.553,293.44,739.209 M315.822,738.89c0,8.848,0,17.697,0,26.545
		c1.498-0.021,3.006-0.021,4.525-0.011c0.351-6.565-0.882-13.32,0.86-19.715c0.914-3.219,4.695-3.909,7.244-2.114
		c0.478-1.37,0.967-2.73,1.455-4.09c-2.188-0.775-4.642-1.816-6.905-0.648c-1.317,0.903-2.231,2.252-3.229,3.484
		c0.011-0.871,0.032-2.603,0.043-3.463C318.477,738.869,317.149,738.879,315.822,738.89 M332.817,738.89c0,8.838,0,17.686,0,26.535
		c1.498,0,2.996,0,4.504,0.021c0.212-6.012-0.414-12.078,0.329-18.037c0.521-4.408,6.044-6.416,9.603-4.111
		c2.486,7.064,0.69,14.797,1.232,22.137c1.498-0.011,3.006-0.011,4.515,0c0.106-5.98-0.223-11.982,0.159-17.941
		c0.255-5.237,9.146-7.531,10.665-1.901c0.733,6.575,0.138,13.236,0.329,19.843c1.498-0.011,3.006-0.011,4.515,0
		c-0.329-7.404,0.712-14.946-0.648-22.243c-2.284-6.873-12.481-5.949-15.817-0.361c-2.443-6.331-11.536-5.449-14.967-0.457
		c0.032-0.882,0.096-2.624,0.117-3.495C335.834,738.879,334.326,738.879,332.817,738.89 M374.691,746.506
		c1.466,0.202,2.942,0.414,4.419,0.627c0.977-5.407,7.765-6.416,11.77-3.75c1.466,1.338,1.392,3.463,1.508,5.311
		c-4.961,1.87-10.771,0.786-15.296,3.856c-3.983,2.847-3.803,9.709,0.531,12.141c4.865,2.656,10.93,1.062,14.882-2.528
		c0.074,3.399,3.027,3.707,5.768,3.314c-2.528-7.074-0.202-14.744-1.625-21.978c-1.36-4.982-7.616-5.47-11.897-5.077
		C380.002,738.561,375.466,741.609,374.691,746.506 M464.004,738.879c0,8.849,0,17.697,0,26.556c1.498-0.011,3.006-0.011,4.515,0
		c0-8.848,0-17.708,0-26.556C467.01,738.869,465.502,738.869,464.004,738.879 M474.542,746.506c1.466,0.202,2.942,0.414,4.419,0.627
		c0.988-5.396,7.765-6.405,11.77-3.75c1.455,1.338,1.402,3.463,1.508,5.311c-4.939,1.859-10.707,0.797-15.222,3.803
		c-4.068,2.826-3.898,9.794,0.499,12.216c4.865,2.624,10.899,1.03,14.829-2.549c0.096,3.399,3.017,3.729,5.768,3.314
		c-2.486-7.043-0.244-14.659-1.583-21.861c-1.487-5.449-8.445-5.704-13.044-5.046C479.077,738.911,475.296,742.087,474.542,746.506
		 M507.312,739.389c-3.856,1.37-5.832,6.342-3.707,9.921c2.082,3.24,6.203,3.75,9.603,4.769c2.571,0.765,5.832,0.967,6.915,3.898
		c-1.753,6.607-12.864,5.364-13.554-1.338c-1.498,0.202-2.985,0.414-4.461,0.637c0.818,3.24,2.56,6.565,5.874,7.818
		c4.472,1.466,9.889,1.338,13.692-1.721c2.741-2.401,3.654-7.011,1.264-9.964c-4.079-4.546-11.791-2.698-15.689-7.213
		c0.117-6.108,11.132-5.417,11.695,0.425c1.508-0.244,3.017-0.499,4.525-0.786C522.247,738.54,513.154,736.829,507.312,739.389
		 M2043.025,777.386c-0.011,10.272,0,20.533,0,30.805c1.296-0.011,2.624-0.011,3.983,0c0-4.61-0.021-9.21,0.011-13.809
		c3.187,0.234,7.202-0.967,9.656,1.774c3.272,3.59,5.492,7.988,8.169,12.025c1.179,0.011,3.537,0.021,4.716,0.021
		c-3.335-4.769-5.566-10.633-10.548-14.011c2.985-0.69,6.427-1.806,7.691-4.918c2.241-4.546-0.5-11.026-5.8-11.578
		C2054.964,777.014,2048.973,777.556,2043.025,777.386 M2177.929,777.386c-0.021,1.317-0.032,2.645-0.01,3.973
		c1.221-0.011,2.464,0,3.728,0.011c-0.032-1.338-0.032-2.666,0-3.983C2180.383,777.375,2179.14,777.375,2177.929,777.386
		 M2111.539,777.396c-0.01,3.622-0.064,7.266,0.074,10.899c-3.654-4.504-11.483-3.643-14.053,1.54
		c-2.911,5.556-2.422,13.788,3.144,17.538c3.484,2.433,8.466,1.519,11.015-1.848c-0.064,0.669-0.181,1.997-0.244,2.656
		c0.946,0,2.836,0.011,3.782,0.011c0-10.272-0.011-20.533,0-30.805C2114.333,777.386,2112.474,777.396,2111.539,777.396
		 M2166.5,780.434c-0.011,1.806-0.021,3.612,0.01,5.439c-0.658,0.011-1.986,0.011-2.645,0.011c-0.011,0.722-0.011,2.156-0.011,2.879
		c0.669,0.032,2.029,0.106,2.709,0.149c0.074,5.587-0.436,11.249,0.255,16.815c0.69,3.314,4.802,3.144,7.457,2.953
		c-0.096-1.19-0.17-2.369-0.223-3.537c-1.328-0.234-3.24,0.234-3.76-1.36c-0.181-4.982-0.021-9.974-0.064-14.956
		c1.221-0.032,2.475-0.053,3.75-0.074c-0.011-0.712-0.032-2.146-0.042-2.868c-1.264-0.011-2.496-0.011-3.707,0
		c-0.021-2.592-0.021-5.184,0-7.754C2168.964,778.883,2167.721,779.659,2166.5,780.434 M2075.073,788.21
		c-3.601,3.909-3.941,10.091-1.965,14.85c3.208,7.754,16.72,7.701,19.206-0.574c-0.807-0.266-2.422-0.797-3.24-1.062
		c-1.604,3.474-5.895,5.269-9.38,3.474c-2.783-1.062-3.665-4.175-4.196-6.777c5.736-0.043,11.483-0.021,17.23-0.011
		c-0.085-3.112-0.287-6.49-2.337-8.997C2086.885,784.343,2079.173,784.11,2075.073,788.21 M2120.834,785.894
		c0.042,5.301-0.095,10.601,0.042,15.902c0.085,2.656,1.434,5.534,4.175,6.342c3.622,1.625,7.776,0.053,10.145-2.942
		c0,0.754-0.011,2.252-0.021,2.995c0.924,0,2.783,0,3.707,0c0.021-7.436-0.011-14.861,0.01-22.296
		c-1.264-0.021-2.496-0.021-3.707-0.021c-0.234,5.184,0.436,10.453-0.382,15.583c-0.775,4.982-9.762,5.747-10.155,0.191
		c-0.266-5.258-0.021-10.516-0.106-15.774C2123.277,785.873,2122.034,785.873,2120.834,785.894 M2146.551,806.066
		c5.375,5.396,15.796,2.252,16.646-5.545c-0.924-0.149-2.762-0.436-3.675-0.574c-0.595,2.209-1.657,4.844-4.175,5.364
		c-3.484,1.19-7.308-1.296-7.892-4.833c-0.776-3.941-0.69-9.656,3.675-11.462c3.166-1.657,7.128,0.563,7.744,4.005
		c1.211-0.159,2.432-0.308,3.697-0.457c-0.754-5.29-6.522-8.487-11.515-6.926C2142.302,787.498,2141.134,800.277,2146.551,806.066
		 M2177.929,785.884c-0.01,7.436,0,14.871,0,22.307c1.2-0.021,2.443-0.021,3.718-0.011c-0.01-7.436,0-14.861,0-22.296
		C2180.383,785.873,2179.14,785.873,2177.929,785.884 M2192.79,785.926c-7.351,2.688-8.424,12.917-4.525,18.834
		c4.143,6.034,14.638,5.003,17.559-1.71c1.53-4.175,1.625-9.22-0.669-13.129C2202.701,785.777,2197.177,784.333,2192.79,785.926
		 M2211.125,785.894c0.01,7.436-0.021,14.861,0.01,22.296c0.924,0,2.783,0,3.707,0c0.202-5.046-0.446-10.155,0.351-15.137
		c0.807-4.515,8.583-5.704,9.964-1.03c0.711,5.332,0.096,10.782,0.308,16.167c0.935,0,2.783,0,3.707,0
		c-0.096-5.747,0.191-11.504-0.127-17.24c-0.956-6.745-10.867-7.33-14.234-2.156c0-0.733,0.021-2.199,0.021-2.921
		C2213.568,785.873,2212.325,785.873,2211.125,785.894 M2041.697,831.294c0,20.629-0.011,41.247,0,61.875
		c20.629,0,41.247,0,61.875,0c0-20.629,0-41.247,0-61.875C2082.944,831.294,2062.326,831.294,2041.697,831.294 M2122.427,844.572
		c-0.011,10.176-0.011,20.363,0,30.539c3.176,0,6.352,0,9.56,0c0-10.176,0-20.363,0-30.539
		C2128.79,844.562,2125.604,844.562,2122.427,844.572 M2138.892,844.572c0,9.932-0.01,19.875,0.011,29.806
		c-0.074,0.69,0.138,1.349,0.436,2.008l0.18-1.317c2.656,0.021,5.417,0.053,8.126,0.053c0.032-5.545-0.042-11.09,0.042-16.624
		c3.835,5.449,7.563,10.994,11.281,16.539c3.027,0.106,6.076,0.085,9.135,0.074c0-10.187,0-20.363,0-30.539
		c-3.027,0-6.034-0.011-9.029,0c-0.011,5.619-0.011,11.228,0,16.847c-3.835-5.609-7.648-11.228-11.462-16.847
		C2144.692,844.572,2141.781,844.562,2138.892,844.572 M2041.697,907.51c-0.011,20.629,0,41.247,0,61.875
		c20.629,0,41.247,0,61.875,0c0-20.629,0-41.247,0-61.875C2082.944,907.5,2062.326,907.51,2041.697,907.51 M2131.499,922.456
		c-13.236,2.815-14.468,24.039-2.698,29.52c6.278,2.326,14.298,2.369,19.524-2.348c5.099-5.024,5.375-13.352,2.974-19.715
		C2148.081,922.477,2138.669,920.576,2131.499,922.456 M2157.747,922.392c0.053,6.49-0.117,12.991,0.064,19.481
		c0.244,4.631,3.07,9.348,7.701,10.686c4.249,1.094,8.827,1.285,13.119,0.234c4.823-1.264,8.115-6.034,8.264-10.92
		c0.159-6.501,0-12.991,0.064-19.481c-3.197-0.021-6.384-0.021-9.56-0.011c-0.096,6.703,0.159,13.416-0.106,20.119
		c-0.786,4.992-8.997,5.046-9.868,0.085c-0.297-6.724-0.032-13.469-0.117-20.204
		C2164.099,922.371,2160.912,922.371,2157.747,922.392 M2191.208,929.807c3.166,0,6.352,0.011,9.56,0.011
		c-0.01,7.701-0.01,15.392,0,23.093c3.166,0,6.342,0,9.55,0.021c0.021-7.712-0.01-15.413,0.011-23.114
		c3.176-0.011,6.352-0.011,9.56,0c-0.021-2.486-0.021-4.961,0-7.436c-9.56-0.011-19.12-0.011-28.68,0
		C2191.186,924.857,2191.186,927.321,2191.208,929.807 M811.091,1038.017c-10.92,8.222-16.89,21.563-18.334,34.926
		c-1.392,13.129-0.839,26.938,4.578,39.176c5.014,10.58,13.257,20.193,24.293,24.665c9.263,3.686,19.375,4.578,29.265,4.43
		c10.41-0.021,21.309-1.933,29.913-8.147c10.049-6.873,15.955-18.334,18.632-29.955c-9.964-3.155-20.013-6.055-29.976-9.22
		c-1.073,4.334-2.326,8.71-4.685,12.545c-6.958,12.747-28.904,12.088-34.98-1.115c-3.112-6.936-3.367-14.712-3.42-22.19
		c0.17-7.627,0.786-15.923,5.651-22.169c6.257-8.625,19.62-10.399,28.192-4.27c4.1,2.751,6.512,7.213,7.903,11.844
		c10.091-2.252,20.183-4.451,30.263-6.745c-2.698-8.349-6.958-16.359-13.363-22.456c-8.487-8.232-20.554-11.323-32.058-11.865
		C838.455,1026.641,822.903,1028.956,811.091,1038.017 M922.403,1036.53c-16.22,14.043-17.006,42.33-1.158,56.947
		c7.138,6.979,17.431,10.123,27.289,9.146c8.126-0.34,15.371-4.759,21.085-10.261c-0.967,7.446-1.264,15.243-4.387,22.212
		c-2.539,5.672-9.571,9.411-15.509,6.703c-4.366-1.763-5.8-6.671-6.713-10.845c-10.283,1.317-20.576,2.539-30.847,3.93
		c2.273,7.425,6.214,14.627,12.503,19.396c5.587,4.398,12.609,6.437,19.609,7.096c10.282,0.871,21.117,0.648,30.656-3.782
		c7.956-3.527,14.723-9.751,18.685-17.516c5.396-10.198,6.724-21.935,7.085-33.301c0.117-10.984-0.712-22.243-4.78-32.558
		c-3.707-9.199-10.272-17.644-19.407-21.893c-8.976-4.079-19.088-4.854-28.808-4.345
		C938.645,1027.915,929.351,1030.454,922.403,1036.53 M1045.857,1028.574c-7.542,1.466-14.839,4.823-20.257,10.357
		c-6.129,6.437-8.944,15.201-10.484,23.762c-1.912,11.78-2.135,23.837-0.839,35.702c0.914,7.457,2.379,14.967,5.566,21.818
		c4.738,9.688,13.777,17.442,24.463,19.62c9.667,2.029,19.853,1.933,29.509-0.191c8.519-1.891,16.518-6.862,21.064-14.436
		c5.917-9.794,7.68-21.425,8.413-32.664c0.733-13.618-0.117-27.544-4.536-40.535c-2.464-7.319-7.404-13.714-13.682-18.154
		C1073.571,1026.354,1058.933,1026.322,1045.857,1028.574 M625.741,1029.137c-0.021,36.732-0.011,73.465-0.011,110.208
		c11.685,0,23.369,0,35.065,0c11.015-0.138,22.233,0.807,32.993-2.199c12.152-2.284,22.307-11.164,27.735-22.073
		c5.534-10.824,5.81-23.348,5.63-35.245c-0.627-14.914-5.056-30.922-17.006-40.747c-8.636-7.361-20.214-9.709-31.262-9.9
		C661.167,1029.073,643.448,1029.179,625.741,1029.137 M1457.157,1068.971c-2.847,8.423-3.049,17.654-1.136,26.312
		c2.528,10.505,10.622,20.193,21.542,22.392c8.795,1.71,18.334,2.093,26.8-1.285c8.519-3.527,13.798-11.993,15.827-20.692
		c-6.108-1.838-12.237-3.612-18.334-5.481c-1.083,4.26-2.645,8.965-6.597,11.398c-4.801,2.571-11.43,2.263-15.498-1.551
		c-3.643-3.59-3.898-9.061-4.228-13.841c-0.085-5.396-0.032-11.334,3.25-15.902c4.228-6.119,14.17-6.883,19.312-1.519
		c1.615,1.551,2.39,3.729,3.314,5.736c6.065-1.37,12.152-2.687,18.228-4.015c-2.539-7.722-7.606-15.211-15.402-18.302
		c-8.381-3.272-17.771-3.293-26.471-1.413C1468.406,1052.867,1460.248,1059.846,1457.157,1068.971 M1604.681,1060.271
		c-4.122,6.639-3.091,16.104,2.857,21.34c6.257,5.46,14.648,7.34,22.53,9.146c3.59,1.03,7.871,1.848,9.985,5.311
		c1.859,3.229-0.329,7.308-3.558,8.594c-4.238,1.7-9.55,1.296-13.098-1.71c-2.581-2.22-3.378-5.651-4.068-8.817
		c-6.618,0.584-13.257,0.818-19.864,1.338c0.648,5.885,2.73,11.791,6.926,16.104c5.301,5.662,13.49,6.83,20.862,7.255
		c8.997,0.383,19.014-0.425,26.131-6.586c8.424-6.915,10.378-21.032,2.581-29.137c-6.745-6.565-16.475-8.169-25.271-10.304
		c-3.304-0.913-7.765-1.105-9.326-4.706c-0.414-2.125,0.913-4.472,2.964-5.205c3.463-1.434,7.712-1.137,10.909,0.871
		c2.379,1.551,3.304,4.376,3.941,7.011c6.543-0.244,13.087-0.86,19.641-1.041c-0.797-6.363-3.654-12.927-9.454-16.199
		c-7.563-4.196-16.603-4.355-25.005-3.665C1616.833,1050.456,1608.632,1053.398,1604.681,1060.271 M1672.653,1060.292
		c-4.122,6.65-3.07,16.114,2.889,21.33c6.087,5.301,14.202,7.245,21.882,8.987c3.803,1.073,8.37,1.827,10.633,5.492
		c1.795,3.197-0.319,7.202-3.495,8.53c-4.228,1.731-9.56,1.349-13.14-1.636c-2.613-2.22-3.42-5.683-4.111-8.859
		c-6.618,0.584-13.257,0.818-19.864,1.338c0.775,8.849,5.768,18.069,14.585,21.043c8.647,2.826,18.069,2.995,27.002,1.476
		c8.275-1.423,16.072-7.011,18.706-15.19c2.836-7.744,0.425-17.431-6.607-22.084c-8.2-5.619-18.377-6.586-27.693-9.263
		c-2.528-0.574-5.258-3.219-3.771-5.927c1.763-3.877,6.979-3.888,10.569-3.07c4.026,0.744,6.278,4.61,6.968,8.36
		c6.522-0.351,13.055-0.871,19.598-1.083c-0.797-6.342-3.633-12.885-9.401-16.167c-7.574-4.238-16.667-4.387-25.101-3.686
		C1684.784,1050.467,1676.594,1053.42,1672.653,1060.292 M1523.324,1117.802c7.064,0.064,14.128,0.011,21.213,0.032
		c1.19-3.697,2.316-7.425,3.42-11.143c7.839-0.032,15.689,0.011,23.539-0.021c1.094,3.718,2.22,7.425,3.346,11.143
		c7.255,0.021,14.51,0.042,21.776-0.011c-8.349-22.381-16.624-44.795-24.973-67.176c-7.68,0.042-15.349,0.011-23.008,0.021
		C1540.171,1073.018,1531.8,1095.431,1523.324,1117.802 M1738.958,1050.647c0,22.403-0.011,44.795,0.011,67.187
		c18.929,0,37.869-0.011,56.809,0.011c0.011-5.056,0-10.102,0.011-15.148c-12.046-0.011-24.081,0.011-36.116-0.011
		c-0.011-4.43-0.011-8.849,0-13.267c10.888-0.011,21.776,0,32.664,0c-0.011-4.61-0.011-9.21,0-13.809
		c-10.909-0.042-21.808,0.074-32.706-0.064c0.043-3.516,0.032-7.032,0.021-10.537c11.685-0.053,23.38-0.011,35.075-0.021
		c-0.011-4.78-0.011-9.56,0-14.34C1776.137,1050.647,1757.548,1050.647,1738.958,1050.647 M1802.162,1050.647
		c-0.011,5.577-0.011,11.154,0.011,16.73c7.075,0,14.149-0.011,21.234,0.011c0,16.815-0.011,33.63,0.011,50.446
		c6.894-0.011,13.788-0.011,20.693,0c0.021-16.815-0.011-33.641,0.021-50.456c7.075,0,14.149,0,21.234,0
		c0-5.577-0.011-11.154,0-16.73C1844.29,1050.647,1823.226,1050.647,1802.162,1050.647 M1869.88,1050.647
		c-0.011,5.577-0.011,11.154,0.011,16.73c7.075,0.032,14.17-0.064,21.266,0.053c-0.074,16.794-0.021,33.599-0.032,50.403
		c6.894,0,13.798,0,20.714,0c0-16.826-0.011-33.641,0-50.456c7.075,0,14.149,0,21.234,0c0.011-5.577,0-11.154,0.011-16.73
		C1912.008,1050.647,1890.944,1050.647,1869.88,1050.647 M1942.643,1050.658c0,22.392-0.011,44.784,0.011,67.176
		c18.95-0.064,37.911,0.117,56.872-0.096c-0.117-5.014-0.043-10.028-0.053-15.031c-12.035-0.021-24.07-0.021-36.095,0
		c-0.042-4.429-0.021-8.859-0.021-13.278c10.877-0.021,21.765-0.011,32.664-0.011c-0.011-4.61-0.011-9.21,0-13.809
		c-10.899-0.011-21.787,0.011-32.675-0.011c0-3.537,0-7.074,0.011-10.601c11.674-0.021,23.359,0,35.054-0.011
		c-0.011-4.78-0.011-9.56,0-14.33C1979.822,1050.647,1961.232,1050.647,1942.643,1050.658 M737.266,1087.029
		c0,7.967,0,15.934,0,23.901c14.871,0,29.743,0,44.614,0c0-7.967,0-15.934,0-23.901
		C767.008,1087.029,752.137,1087.029,737.266,1087.029z"/>
	<path stroke="#000000" stroke-width="0.5" d="M2043.025,726.143c1.381-0.011,2.783-0.021,4.217-0.021
		c5.258,7.988,10.506,15.987,15.711,24.017c-0.032-7.999-0.011-16.008-0.011-24.007c1.307-0.011,2.634,0,3.994,0.011
		c-0.021,10.261-0.021,20.522,0,30.784c-1.445,0-2.847,0-4.228,0.021c-5.258-7.999-10.516-15.987-15.711-24.017
		c0.021,7.999,0,16.008,0.011,24.007c-1.36-0.011-2.688-0.011-3.983-0.011C2043.025,746.666,2043.025,736.404,2043.025,726.143z"/>
	<path stroke="#000000" stroke-width="0.5" d="M2097.188,726.143c1.222-0.011,2.465-0.011,3.739,0
		c-0.032,1.317-0.043,2.634-0.021,3.973c-1.253-0.011-2.496-0.011-3.697,0C2097.178,728.778,2097.167,727.46,2097.188,726.143z"/>
	<path stroke="#000000" stroke-width="0.5" d="M464.004,728.82c1.477-0.042,2.953-0.064,4.44-0.085
		c0.032,1.593,0.064,3.208,0.096,4.833c-1.519-0.011-3.027-0.011-4.536,0C464.004,731.975,463.994,730.392,464.004,728.82z"/>
	<path stroke="#000000" stroke-width="0.5" d="M251.025,765.425c0.011-12.216-0.021-24.432,0.011-36.647
		c1.668,0,3.335,0,5.014,0.011c6.288,9.411,12.396,18.95,18.632,28.404c-0.043-9.475-0.011-18.94-0.021-28.404
		c1.593,0,3.187,0,4.78,0c0,12.216,0,24.432,0,36.658c-1.689-0.021-3.378-0.032-5.056-0.032
		c-5.736-8.625-11.366-17.325-16.996-26.025c-0.414-0.659-0.935-1.222-1.551-1.678c-0.064,9.241-0.021,18.483-0.032,27.724
		C254.212,765.414,252.618,765.414,251.025,765.425z"/>
	<path stroke="#000000" stroke-width="0.5" d="M403.988,765.425c0.021-12.216-0.021-24.432,0.021-36.647
		c1.115,0,3.367,0.011,4.493,0.021c0,12.205,0,24.421,0,36.637C406.994,765.425,405.485,765.425,403.988,765.425z"/>
	<path stroke="#000000" stroke-width="0.5" d="M430.012,728.799c6.087,0.159,12.216-0.393,18.271,0.319
		c4.961,0.627,9.061,5.715,7.839,10.729c-0.51,2.656-2.56,4.568-4.748,5.97c2.603,0.924,5.067,2.645,6.14,5.301
		c2.241,5.46-1.158,12.609-7.138,13.66c-6.692,1.307-13.586,0.382-20.363,0.659C430.012,753.22,430.012,741.004,430.012,728.799
		 M434.803,733.037c-0.011,3.707-0.011,7.425-0.011,11.143c4.376-0.181,8.848,0.499,13.161-0.51
		c4.706-1.052,4.738-8.594,0.34-10.049C443.885,732.495,439.286,733.239,434.803,733.037 M434.793,748.45c0,4.238,0,8.477,0,12.726
		c4.833-0.234,9.794,0.574,14.553-0.531c4.908-1.349,5.428-8.859,0.935-11.09C445.372,747.579,439.923,748.748,434.793,748.45z"/>
	<path fill="#FFFFFF" stroke="#FFFFFF" stroke-width="0.5" d="M434.803,733.037c4.483,0.202,9.082-0.542,13.49,0.584
		c4.398,1.455,4.366,8.997-0.34,10.049c-4.313,1.009-8.785,0.329-13.161,0.51C434.793,740.462,434.793,736.744,434.803,733.037z"/>
	<path stroke="#000000" stroke-width="0.5" d="M2078.026,734.896c3.282-1.338,7.319-1.126,10.272,0.956
		c5.078,3.643,5.375,11.143,3.102,16.475c-3.346,6.363-13.544,7.011-17.506,0.956
		C2070.409,747.473,2071.206,737.913,2078.026,734.896 M2079.152,738.062c-5.64,3.782-4.695,15.519,2.847,16.274
		c5.757,0.319,7.956-6.522,6.767-11.185C2088.361,738.71,2083.061,735.64,2079.152,738.062z"/>
	<path stroke="#000000" stroke-width="0.5" d="M2097.199,734.63c1.211,0,2.454,0,3.718,0.011c-0.01,7.425-0.01,14.861,0,22.296
		c-1.264-0.011-2.507-0.011-3.718-0.011C2097.199,749.502,2097.199,742.066,2097.199,734.63z"/>
	<path stroke="#000000" stroke-width="0.5" d="M2105.941,741.089c-0.382-9.252,15.923-9.433,16.9-0.659
		c-1.222,0.191-2.433,0.382-3.612,0.574c-0.669-4.812-9.666-5.332-9.56-0.117c3.357,3.675,9.751,2.167,13.044,6.119
		c2.199,2.911,0.797,7.404-2.294,9.071c-5.322,3.187-14.276,1.275-15.063-5.768c0.892-0.127,2.666-0.404,3.559-0.531
		c0.733,5.088,8.987,6.384,11.079,1.742c0.658-2.889-3.027-3.325-4.95-3.952C2111.455,746.528,2106.26,745.742,2105.941,741.089z"/>
	<path stroke="#000000" stroke-width="0.5" d="M2128.992,737.87c3.516-4.663,11.313-5.141,15.349-0.871
		c2.635,2.528,3.038,6.373,3.134,9.826c-5.768,0.053-11.525-0.042-17.282,0.064c0.478,2.889,1.784,6.214,4.929,7.053
		c3.41,1.275,7.298-0.552,8.689-3.888c0.882,0.138,2.624,0.414,3.495,0.552c-2.05,8.392-15.201,9.284-19.099,1.955
		C2125.848,748.036,2126.071,742.098,2128.992,737.87 M2130.224,743.628c4.525,0.053,9.05,0.032,13.597,0.021
		c-0.351-3.017-2.273-6.023-5.524-6.31C2134.324,736.511,2130.564,739.697,2130.224,743.628z"/>
	<path fill="#FFFFFF" stroke="#FFFFFF" stroke-width="0.5" d="M2079.152,738.062c3.909-2.422,9.21,0.648,9.614,5.088
		c1.19,4.663-1.009,11.504-6.767,11.185C2074.457,753.581,2073.511,741.843,2079.152,738.062z"/>
	<path fill="#FFFFFF" stroke="#FFFFFF" stroke-width="0.5" d="M2130.224,743.628c0.34-3.93,4.1-7.117,8.073-6.288
		c3.25,0.287,5.173,3.293,5.524,6.31C2139.274,743.66,2134.749,743.681,2130.224,743.628z"/>
	<path stroke="#000000" stroke-width="0.5" d="M293.44,739.209c6.108-2.656,14.234,0.574,15.997,7.202
		c1.561,5.598,1.307,12.704-3.378,16.794c-5.715,5.035-16.39,3.091-18.897-4.451C284.698,751.998,285.877,742.119,293.44,739.209
		 M296.542,742.194c-6.129,1.615-6.841,9.422-5.364,14.563c0.988,4.249,6.15,6.958,10.102,4.812
		c4.642-2.401,4.929-8.54,4.132-13.055C304.806,744.446,300.706,741.089,296.542,742.194z"/>
	<path stroke="#000000" stroke-width="0.5" d="M315.822,738.89c1.328-0.011,2.656-0.021,3.994-0.011
		c-0.011,0.86-0.032,2.592-0.043,3.463c0.999-1.232,1.912-2.581,3.229-3.484c2.263-1.168,4.716-0.127,6.905,0.648
		c-0.489,1.36-0.977,2.719-1.455,4.09c-2.549-1.795-6.331-1.105-7.244,2.114c-1.742,6.395-0.51,13.151-0.86,19.715
		c-1.519-0.011-3.027-0.011-4.525,0.011C315.822,756.587,315.822,747.739,315.822,738.89z"/>
	<path stroke="#000000" stroke-width="0.5" d="M332.817,738.89c1.508-0.011,3.017-0.011,4.536-0.011
		c-0.021,0.871-0.085,2.613-0.117,3.495c3.431-4.992,12.524-5.874,14.967,0.457c3.335-5.587,13.533-6.511,15.817,0.361
		c1.36,7.298,0.319,14.84,0.648,22.243c-1.508-0.011-3.017-0.011-4.515,0c-0.191-6.607,0.404-13.267-0.329-19.843
		c-1.519-5.63-10.41-3.335-10.665,1.901c-0.382,5.959-0.053,11.961-0.159,17.941c-1.508-0.011-3.017-0.011-4.515,0
		c-0.542-7.34,1.253-15.073-1.232-22.137c-3.559-2.305-9.082-0.297-9.603,4.111c-0.744,5.959-0.117,12.025-0.329,18.037
		c-1.508-0.021-3.006-0.021-4.504-0.021C332.817,756.576,332.817,747.728,332.817,738.89z"/>
	<path stroke="#000000" stroke-width="0.5" d="M374.691,746.506c0.775-4.897,5.311-7.945,10.059-8.084
		c4.281-0.393,10.537,0.096,11.897,5.077c1.423,7.234-0.903,14.903,1.625,21.978c-2.741,0.393-5.694,0.085-5.768-3.314
		c-3.952,3.59-10.017,5.184-14.882,2.528c-4.334-2.432-4.515-9.295-0.531-12.141c4.525-3.07,10.336-1.986,15.296-3.856
		c-0.117-1.848-0.042-3.973-1.508-5.311c-4.005-2.666-10.792-1.657-11.77,3.75C377.633,746.921,376.157,746.708,374.691,746.506
		 M381.341,754.675c-2.783,0.839-3.58,4.929-1.222,6.692c2.73,1.976,6.692,1.328,9.348-0.478c2.751-1.912,2.889-5.587,2.911-8.604
		C388.766,753.379,384.963,753.655,381.341,754.675z"/>
	<path stroke="#000000" stroke-width="0.5" d="M464.004,738.879c1.498-0.011,3.006-0.011,4.515,0c0,8.849,0,17.708,0,26.556
		c-1.508-0.011-3.017-0.011-4.515,0C464.004,756.576,464.004,747.728,464.004,738.879z"/>
	<path stroke="#000000" stroke-width="0.5" d="M474.542,746.506c0.754-4.419,4.536-7.595,8.944-7.935
		c4.6-0.659,11.557-0.404,13.044,5.046c1.338,7.202-0.903,14.818,1.583,21.861c-2.751,0.414-5.672,0.085-5.768-3.314
		c-3.93,3.58-9.964,5.173-14.829,2.549c-4.398-2.422-4.568-9.39-0.499-12.216c4.515-3.006,10.282-1.944,15.222-3.803
		c-0.106-1.848-0.053-3.973-1.508-5.311c-4.005-2.656-10.782-1.646-11.77,3.75C477.484,746.921,476.007,746.708,474.542,746.506
		 M481.234,754.664c-2.836,0.807-3.633,4.971-1.232,6.735c2.751,1.933,6.692,1.285,9.337-0.531c2.73-1.912,2.857-5.577,2.9-8.583
		C488.627,753.368,484.845,753.655,481.234,754.664z"/>
	<path stroke="#000000" stroke-width="0.5" d="M507.312,739.389c5.842-2.56,14.935-0.85,16.157,6.448
		c-1.508,0.287-3.017,0.542-4.525,0.786c-0.563-5.842-11.578-6.533-11.695-0.425c3.898,4.515,11.61,2.666,15.689,7.213
		c2.39,2.953,1.477,7.563-1.264,9.964c-3.803,3.059-9.22,3.187-13.692,1.721c-3.314-1.253-5.056-4.578-5.874-7.818
		c1.477-0.223,2.964-0.436,4.461-0.637c0.69,6.703,11.801,7.946,13.554,1.338c-1.083-2.932-4.345-3.134-6.915-3.898
		c-3.399-1.02-7.521-1.53-9.603-4.769C501.48,745.731,503.456,740.76,507.312,739.389z"/>
	<path fill="#FFFFFF" stroke="#FFFFFF" stroke-width="0.5" d="M296.542,742.194c4.164-1.105,8.264,2.252,8.87,6.32
		c0.797,4.515,0.51,10.654-4.132,13.055c-3.952,2.146-9.114-0.563-10.102-4.812C289.701,751.616,290.413,743.808,296.542,742.194z"
		/>
	<path fill="#FFFFFF" stroke="#FFFFFF" stroke-width="0.5" d="M434.793,748.45c5.131,0.297,10.58-0.871,15.487,1.105
		c4.493,2.231,3.973,9.741-0.935,11.09c-4.759,1.105-9.72,0.297-14.553,0.531C434.793,756.927,434.793,752.689,434.793,748.45z"/>
	<path fill="#FFFFFF" stroke="#FFFFFF" stroke-width="0.5" d="M381.341,754.675c3.622-1.02,7.425-1.296,11.037-2.39
		c-0.021,3.017-0.159,6.692-2.911,8.604c-2.656,1.806-6.618,2.454-9.348,0.478C377.761,759.604,378.557,755.514,381.341,754.675z"/>
	<path fill="#FFFFFF" stroke="#FFFFFF" stroke-width="0.5" d="M481.234,754.664c3.612-1.009,7.393-1.296,11.005-2.379
		c-0.042,3.006-0.17,6.671-2.9,8.583c-2.645,1.816-6.586,2.464-9.337,0.531C477.601,759.636,478.397,755.472,481.234,754.664z"/>
	<path stroke="#000000" stroke-width="0.5" d="M2043.025,777.386c5.948,0.17,11.939-0.372,17.877,0.308
		c5.301,0.552,8.041,7.032,5.8,11.578c-1.264,3.112-4.706,4.228-7.691,4.918c4.982,3.378,7.212,9.242,10.548,14.011
		c-1.179,0-3.537-0.011-4.716-0.021c-2.677-4.036-4.897-8.434-8.169-12.025c-2.454-2.74-6.469-1.54-9.656-1.774
		c-0.032,4.6-0.011,9.199-0.011,13.809c-1.36-0.011-2.688-0.011-3.983,0C2043.025,797.919,2043.014,787.658,2043.025,777.386
		 M2047.008,781.104c-0.021,3.176-0.021,6.373,0.011,9.56c4.568-0.308,9.39,0.733,13.82-0.797c3.505-1.349,3.495-6.841-0.064-8.116
		C2056.313,780.445,2051.576,781.369,2047.008,781.104z"/>
	<path stroke="#000000" stroke-width="0.5" d="M2177.929,777.386c1.211-0.011,2.454-0.011,3.718,0c-0.032,1.317-0.032,2.645,0,3.983
		c-1.264-0.011-2.507-0.021-3.728-0.011C2177.897,780.031,2177.908,778.703,2177.929,777.386z"/>
	<path stroke="#000000" stroke-width="0.5" d="M2111.539,777.396c0.935,0,2.794-0.011,3.718-0.011c-0.011,10.272,0,20.533,0,30.805
		c-0.946,0-2.836-0.011-3.782-0.011c0.064-0.659,0.181-1.986,0.244-2.656c-2.549,3.367-7.531,4.281-11.015,1.848
		c-5.566-3.75-6.055-11.982-3.144-17.538c2.571-5.184,10.399-6.044,14.053-1.54C2111.476,784.662,2111.529,781.019,2111.539,777.396
		 M2103.381,788.922c-3.888,1.785-4.143,6.756-3.654,10.442c0.181,3.548,3.686,7.276,7.415,5.938
		c4.504-1.423,4.865-7.181,4.153-11.069C2110.923,790.557,2107.067,787.19,2103.381,788.922z"/>
	<path stroke="#000000" stroke-width="0.5" d="M2166.5,780.434c1.222-0.775,2.464-1.551,3.729-2.305
		c-0.021,2.571-0.021,5.162,0,7.754c1.211-0.011,2.443-0.011,3.707,0c0.01,0.722,0.032,2.156,0.042,2.868
		c-1.275,0.021-2.528,0.042-3.75,0.074c0.042,4.982-0.117,9.974,0.064,14.956c0.521,1.593,2.432,1.126,3.76,1.36
		c0.053,1.168,0.127,2.348,0.223,3.537c-2.656,0.191-6.767,0.361-7.457-2.953c-0.69-5.566-0.18-11.228-0.255-16.815
		c-0.68-0.042-2.04-0.117-2.709-0.149c0-0.722,0-2.156,0.011-2.879c0.658,0,1.986,0,2.645-0.011
		C2166.479,784.046,2166.489,782.24,2166.5,780.434z"/>
	<path fill="#FFFFFF" stroke="#FFFFFF" stroke-width="0.5" d="M2047.008,781.104c4.568,0.266,9.305-0.659,13.767,0.648
		c3.559,1.275,3.569,6.766,0.064,8.116c-4.429,1.53-9.252,0.489-13.82,0.797C2046.987,787.477,2046.987,784.28,2047.008,781.104z"/>
	<path stroke="#000000" stroke-width="0.5" d="M2075.073,788.21c4.1-4.1,11.812-3.867,15.317,0.903
		c2.05,2.507,2.252,5.885,2.337,8.997c-5.747-0.011-11.494-0.032-17.23,0.011c0.531,2.602,1.413,5.715,4.196,6.777
		c3.484,1.795,7.776,0,9.38-3.474c0.818,0.266,2.433,0.797,3.24,1.062c-2.486,8.275-15.998,8.328-19.206,0.574
		C2071.132,798.301,2071.472,792.119,2075.073,788.21 M2075.53,794.913c4.525-0.011,9.061,0.021,13.607-0.032
		c-0.489-2.751-1.944-5.694-4.982-6.193C2080.023,787.519,2075.859,790.738,2075.53,794.913z"/>
	<path stroke="#000000" stroke-width="0.5" d="M2120.834,785.894c1.2-0.021,2.443-0.021,3.707-0.021
		c0.085,5.258-0.159,10.516,0.106,15.774c0.393,5.555,9.38,4.791,10.155-0.191c0.818-5.131,0.149-10.399,0.382-15.583
		c1.211,0,2.443,0,3.707,0.021c-0.021,7.436,0.011,14.861-0.01,22.296c-0.924,0-2.783,0-3.707,0c0.01-0.744,0.021-2.241,0.021-2.995
		c-2.369,2.995-6.522,4.568-10.145,2.942c-2.74-0.807-4.09-3.686-4.175-6.342C2120.739,796.495,2120.876,791.195,2120.834,785.894z"
		/>
	<path stroke="#000000" stroke-width="0.5" d="M2146.551,806.066c-5.417-5.789-4.249-18.568,4.504-20.427
		c4.993-1.562,10.76,1.636,11.515,6.926c-1.264,0.149-2.486,0.297-3.697,0.457c-0.616-3.442-4.578-5.662-7.744-4.005
		c-4.366,1.806-4.451,7.521-3.675,11.462c0.584,3.537,4.408,6.023,7.892,4.833c2.518-0.521,3.58-3.155,4.175-5.364
		c0.913,0.138,2.751,0.425,3.675,0.574C2162.346,808.318,2151.926,811.462,2146.551,806.066z"/>
	<path stroke="#000000" stroke-width="0.5" d="M2177.929,785.884c1.211-0.011,2.454-0.011,3.718,0c0,7.436-0.01,14.861,0,22.296
		c-1.275-0.011-2.517-0.011-3.718,0.011C2177.929,800.755,2177.919,793.319,2177.929,785.884z"/>
	<path stroke="#000000" stroke-width="0.5" d="M2192.79,785.926c4.387-1.593,9.911-0.149,12.365,3.994
		c2.294,3.909,2.199,8.955,0.669,13.129c-2.921,6.713-13.416,7.744-17.559,1.71C2184.367,798.843,2185.439,788.614,2192.79,785.926
		 M2193.757,789.06c-6.342,3.527-5.109,16.592,3.049,16.518c5.099-0.191,7.149-6.193,6.246-10.506
		C2202.956,790.579,2197.974,786.946,2193.757,789.06z"/>
	<path stroke="#000000" stroke-width="0.5" d="M2211.125,785.894c1.2-0.021,2.443-0.021,3.707-0.021
		c0,0.722-0.021,2.188-0.021,2.921c3.367-5.173,13.278-4.589,14.234,2.156c0.318,5.736,0.031,11.493,0.127,17.24
		c-0.924,0-2.772,0-3.707,0c-0.212-5.386,0.403-10.835-0.308-16.167c-1.381-4.674-9.156-3.484-9.964,1.03
		c-0.797,4.982-0.149,10.091-0.351,15.137c-0.924,0-2.783,0-3.707,0C2211.103,800.755,2211.135,793.33,2211.125,785.894z"/>
	<path fill="#FFFFFF" stroke="#FFFFFF" stroke-width="0.5" d="M2075.53,794.913c0.329-4.175,4.493-7.393,8.625-6.225
		c3.038,0.499,4.493,3.442,4.982,6.193C2084.59,794.934,2080.055,794.902,2075.53,794.913z"/>
	<path fill="#FFFFFF" stroke="#FFFFFF" stroke-width="0.5" d="M2103.381,788.922c3.686-1.731,7.542,1.636,7.914,5.311
		c0.712,3.888,0.35,9.645-4.153,11.069c-3.729,1.338-7.234-2.39-7.415-5.938C2099.239,795.677,2099.494,790.706,2103.381,788.922z"
		/>
	<path fill="#FFFFFF" stroke="#FFFFFF" stroke-width="0.5" d="M2193.757,789.06c4.217-2.114,9.199,1.519,9.295,6.012
		c0.903,4.313-1.147,10.314-6.246,10.506C2188.647,805.652,2187.415,792.586,2193.757,789.06z"/>
	<path stroke="#000000" stroke-width="0.5" d="M2041.697,831.294c20.629,0,41.247,0,61.875,0c0,20.629,0,41.247,0,61.875
		c-20.629,0-41.247,0-61.875,0C2041.687,872.541,2041.697,851.923,2041.697,831.294 M2043.822,833.419
		c0,19.205-0.011,38.421,0,57.627c19.205,0,38.411,0,57.627,0c0-19.216,0-38.421,0-57.627
		C2082.232,833.419,2063.027,833.419,2043.822,833.419z"/>
	<path fill="#FFFFFF" stroke="#FFFFFF" stroke-width="0.5" d="M2043.822,833.419c19.205,0,38.411,0,57.627,0
		c0,19.205,0,38.411,0,57.627c-19.216,0-38.421,0-57.627,0C2043.811,871.84,2043.822,852.624,2043.822,833.419z"/>
	<path stroke="#000000" stroke-width="0.5" d="M2122.427,844.572c3.176-0.011,6.363-0.011,9.56,0c0,10.176,0,20.363,0,30.539
		c-3.208,0-6.384,0-9.56,0C2122.417,864.936,2122.417,854.749,2122.427,844.572z"/>
	<path stroke="#000000" stroke-width="0.5" d="M2138.892,844.572c2.889-0.011,5.8,0,8.721,0c3.813,5.619,7.627,11.239,11.462,16.847
		c-0.011-5.619-0.011-11.228,0-16.847c2.995-0.011,6.002,0,9.029,0c0,10.176,0,20.352,0,30.539
		c-3.059,0.011-6.108,0.032-9.135-0.074c-3.718-5.545-7.446-11.09-11.281-16.539c-0.085,5.534-0.011,11.079-0.042,16.624
		c-2.709,0-5.471-0.032-8.126-0.053l-0.18,1.317c-0.298-0.659-0.51-1.317-0.436-2.008
		C2138.882,864.447,2138.892,854.504,2138.892,844.572z"/>
	<path stroke="#000000" stroke-width="0.5" d="M2041.697,907.51c20.629,0,41.247-0.011,61.875,0c0,20.629,0,41.247,0,61.875
		c-20.629,0-41.247,0-61.875,0C2041.697,948.757,2041.687,928.139,2041.697,907.51 M2043.822,909.635
		c-0.011,19.205,0,38.421,0,57.627c19.205,0,38.411,0,57.627,0c0-19.216,0-38.421,0-57.627
		C2082.232,909.624,2063.027,909.635,2043.822,909.635z"/>
	<path fill="#FFFFFF" stroke="#FFFFFF" stroke-width="0.5" d="M2043.822,909.635c19.205,0,38.411-0.011,57.627,0
		c0,19.205,0,38.411,0,57.627c-19.216,0-38.421,0-57.627,0C2043.822,948.056,2043.811,928.84,2043.822,909.635z"/>
	<path stroke="#000000" stroke-width="0.5" d="M2131.499,922.456c7.17-1.88,16.582,0.021,19.8,7.457
		c2.401,6.363,2.125,14.691-2.974,19.715c-5.226,4.716-13.246,4.674-19.524,2.348
		C2117.031,946.494,2118.263,925.271,2131.499,922.456 M2135.397,929.074c-5.47,1.307-5.598,8.147-4.557,12.577
		c0.722,5.269,8.965,6.395,11.271,1.721c1.381-3.42,1.402-7.414,0.255-10.899C2141.293,929.743,2138.095,928.596,2135.397,929.074z"
		/>
	<path stroke="#000000" stroke-width="0.5" d="M2157.747,922.392c3.166-0.021,6.352-0.021,9.56-0.011
		c0.085,6.735-0.181,13.48,0.117,20.204c0.871,4.961,9.082,4.908,9.868-0.085c0.265-6.703,0.01-13.416,0.106-20.119
		c3.176-0.011,6.363-0.011,9.56,0.011c-0.064,6.49,0.095,12.981-0.064,19.481c-0.149,4.886-3.442,9.656-8.264,10.92
		c-4.292,1.052-8.87,0.86-13.119-0.234c-4.632-1.338-7.457-6.055-7.701-10.686C2157.63,935.383,2157.8,928.882,2157.747,922.392z"/>
	<path stroke="#000000" stroke-width="0.5" d="M2191.208,929.807c-0.021-2.486-0.021-4.95,0-7.425c9.56-0.011,19.12-0.011,28.68,0
		c-0.021,2.475-0.021,4.95,0,7.436c-3.208-0.011-6.384-0.011-9.56,0c-0.021,7.701,0.01,15.402-0.011,23.114
		c-3.208-0.021-6.384-0.021-9.55-0.021c-0.01-7.701-0.01-15.392,0-23.093C2197.56,929.817,2194.373,929.807,2191.208,929.807z"/>
	<path fill="#FFFFFF" stroke="#FFFFFF" stroke-width="0.5" d="M2135.397,929.074c2.698-0.478,5.896,0.669,6.969,3.399
		c1.147,3.484,1.126,7.478-0.255,10.899c-2.305,4.674-10.548,3.548-11.271-1.721C2129.799,937.221,2129.927,930.38,2135.397,929.074
		z"/>
	<path fill="#00A651" stroke="#00A651" stroke-width="0.5" d="M811.091,1038.017c11.812-9.061,27.363-11.377,41.873-10.548
		c11.504,0.542,23.571,3.633,32.058,11.865c6.405,6.097,10.665,14.107,13.363,22.456c-10.081,2.294-20.172,4.493-30.263,6.745
		c-1.392-4.631-3.803-9.093-7.903-11.844c-8.572-6.129-21.935-4.355-28.192,4.27c-4.865,6.246-5.481,14.542-5.651,22.169
		c0.053,7.478,0.308,15.254,3.42,22.19c6.076,13.204,28.022,13.862,34.98,1.115c2.358-3.835,3.612-8.211,4.685-12.545
		c9.964,3.165,20.013,6.065,29.976,9.22c-2.677,11.621-8.583,23.083-18.632,29.955c-8.604,6.214-19.503,8.126-29.913,8.147
		c-9.889,0.149-20.002-0.744-29.265-4.43c-11.037-4.472-19.28-14.085-24.293-24.665c-5.417-12.237-5.97-26.046-4.578-39.176
		C794.202,1059.581,800.171,1046.239,811.091,1038.017z"/>
	<path fill="#00A651" stroke="#00A651" stroke-width="0.5" d="M922.403,1036.53c6.947-6.076,16.242-8.615,25.303-9.072
		c9.72-0.51,19.832,0.266,28.808,4.345c9.135,4.249,15.7,12.694,19.407,21.893c4.068,10.314,4.897,21.574,4.78,32.558
		c-0.361,11.366-1.689,23.104-7.085,33.301c-3.962,7.765-10.729,13.99-18.685,17.516c-9.539,4.43-20.374,4.653-30.656,3.782
		c-7-0.659-14.022-2.698-19.609-7.096c-6.288-4.769-10.229-11.971-12.503-19.396c10.272-1.391,20.565-2.613,30.847-3.93
		c0.913,4.175,2.348,9.082,6.713,10.845c5.938,2.709,12.97-1.03,15.509-6.703c3.123-6.968,3.42-14.765,4.387-22.212
		c-5.715,5.502-12.959,9.921-21.085,10.261c-9.858,0.977-20.151-2.167-27.289-9.146
		C905.397,1078.86,906.183,1050.573,922.403,1036.53 M949.841,1047.12c-5.417,1.211-9.316,6.235-10.166,11.578
		c-1.37,7.404-0.797,16.348,5.162,21.712c5.959,5.396,16.316,3.729,20.586-2.995c3.983-6.501,3.973-15.01,1.052-21.903
		C963.661,1049.415,956.512,1045.272,949.841,1047.12z"/>
	<path fill="#00A651" stroke="#00A651" stroke-width="0.5" d="M1045.857,1028.574c13.076-2.252,27.714-2.22,39.218,5.279
		c6.278,4.44,11.217,10.835,13.682,18.154c4.419,12.991,5.269,26.917,4.536,40.535c-0.733,11.239-2.496,22.87-8.413,32.664
		c-4.546,7.574-12.545,12.545-21.064,14.436c-9.656,2.124-19.843,2.22-29.509,0.191c-10.686-2.177-19.726-9.932-24.463-19.62
		c-3.187-6.851-4.653-14.362-5.566-21.818c-1.296-11.865-1.073-23.922,0.839-35.702c1.54-8.562,4.355-17.325,10.484-23.762
		C1031.018,1033.396,1038.315,1030.04,1045.857,1028.574 M1054.291,1048.661c-5.789,2.082-7.988,8.615-8.848,14.17
		c-1.87,12.354-1.806,24.963-0.627,37.391c0.765,6.044,1.806,12.768,6.511,17.145c4.483,4.291,12.396,3.134,15.923-1.827
		c4.345-5.948,4.77-13.65,5.248-20.735c0.308-9.188,0.404-18.419-0.616-27.576c-0.722-5.258-1.508-10.952-5.078-15.137
		C1063.905,1048.438,1058.636,1047.089,1054.291,1048.661z"/>
	<path stroke="#000000" stroke-width="0.5" d="M625.741,1029.137c17.708,0.042,35.426-0.064,53.144,0.042
		c11.047,0.191,22.626,2.539,31.262,9.9c11.95,9.826,16.38,25.834,17.006,40.747c0.181,11.897-0.096,24.421-5.63,35.245
		c-5.428,10.909-15.583,19.79-27.735,22.073c-10.761,3.006-21.978,2.061-32.993,2.199c-11.695,0-23.38,0-35.065,0
		C625.73,1102.601,625.72,1065.869,625.741,1029.137 M659.988,1054.376c0.011,19.906,0,39.823,0,59.74
		c7.967-0.287,16.613,1.126,23.943-2.751c7.839-5.184,8.509-15.573,8.732-24.07c-0.074-9.146,0.17-19.651-6.15-27.002
		C679.49,1053.494,668.974,1054.365,659.988,1054.376z"/>
	<path fill="#FFFFFF" stroke="#FFFFFF" stroke-width="0.5" d="M949.841,1047.12c6.671-1.848,13.82,2.294,16.635,8.392
		c2.921,6.894,2.932,15.402-1.052,21.903c-4.27,6.724-14.627,8.392-20.586,2.995c-5.959-5.364-6.533-14.308-5.162-21.712
		C940.525,1053.356,944.424,1048.331,949.841,1047.12z"/>
	<path fill="#FFFFFF" stroke="#FFFFFF" stroke-width="0.5" d="M1054.291,1048.661c4.345-1.572,9.613-0.223,12.513,3.431
		c3.569,4.185,4.355,9.879,5.078,15.137c1.02,9.156,0.924,18.387,0.616,27.576c-0.478,7.085-0.903,14.786-5.248,20.735
		c-3.527,4.961-11.44,6.119-15.923,1.827c-4.706-4.377-5.747-11.101-6.511-17.145c-1.179-12.428-1.243-25.037,0.627-37.391
		C1046.303,1057.276,1048.502,1050.743,1054.291,1048.661z"/>
	<path stroke="#000000" stroke-width="0.5" d="M1457.157,1068.971c3.091-9.125,11.249-16.104,20.608-18.164
		c8.7-1.88,18.09-1.859,26.471,1.413c7.797,3.091,12.864,10.58,15.402,18.302c-6.076,1.328-12.163,2.645-18.228,4.015
		c-0.924-2.008-1.7-4.185-3.314-5.736c-5.141-5.364-15.084-4.599-19.312,1.519c-3.282,4.568-3.335,10.505-3.25,15.902
		c0.329,4.78,0.584,10.251,4.228,13.841c4.068,3.813,10.697,4.121,15.498,1.551c3.952-2.432,5.513-7.138,6.597-11.398
		c6.097,1.87,12.226,3.643,18.334,5.481c-2.029,8.7-7.308,17.166-15.827,20.692c-8.466,3.378-18.005,2.995-26.8,1.285
		c-10.92-2.199-19.014-11.886-21.542-22.392C1454.108,1086.625,1454.31,1077.394,1457.157,1068.971z"/>
	<path stroke="#000000" stroke-width="0.5" d="M1604.681,1060.271c3.952-6.873,12.152-9.815,19.683-10.399
		c8.402-0.69,17.442-0.531,25.005,3.665c5.8,3.272,8.657,9.836,9.454,16.199c-6.554,0.181-13.098,0.797-19.641,1.041
		c-0.637-2.634-1.561-5.46-3.941-7.011c-3.197-2.008-7.446-2.305-10.909-0.871c-2.05,0.733-3.378,3.08-2.964,5.205
		c1.561,3.601,6.023,3.792,9.326,4.706c8.795,2.135,18.526,3.739,25.271,10.304c7.797,8.105,5.842,22.222-2.581,29.137
		c-7.117,6.161-17.134,6.968-26.131,6.586c-7.372-0.425-15.562-1.593-20.862-7.255c-4.196-4.313-6.278-10.219-6.926-16.104
		c6.607-0.52,13.246-0.754,19.864-1.338c0.69,3.165,1.487,6.597,4.068,8.817c3.548,3.006,8.859,3.41,13.098,1.71
		c3.229-1.285,5.417-5.364,3.558-8.594c-2.114-3.463-6.395-4.281-9.985-5.311c-7.882-1.806-16.274-3.686-22.53-9.146
		C1601.59,1076.375,1600.559,1066.91,1604.681,1060.271z"/>
	<path stroke="#000000" stroke-width="0.5" d="M1672.653,1060.292c3.941-6.873,12.131-9.826,19.651-10.41
		c8.434-0.701,17.527-0.552,25.101,3.686c5.768,3.282,8.604,9.826,9.401,16.167c-6.543,0.212-13.076,0.733-19.598,1.083
		c-0.691-3.75-2.942-7.616-6.968-8.36c-3.59-0.818-8.806-0.807-10.569,3.07c-1.487,2.709,1.243,5.354,3.771,5.927
		c9.316,2.677,19.492,3.644,27.693,9.263c7.032,4.653,9.443,14.34,6.607,22.084c-2.634,8.179-10.431,13.767-18.706,15.19
		c-8.933,1.519-18.355,1.349-27.002-1.476c-8.817-2.974-13.809-12.195-14.585-21.043c6.607-0.52,13.246-0.754,19.864-1.338
		c0.69,3.176,1.498,6.639,4.111,8.859c3.58,2.985,8.912,3.367,13.14,1.636c3.176-1.328,5.29-5.333,3.495-8.53
		c-2.263-3.665-6.83-4.419-10.633-5.492c-7.68-1.742-15.796-3.686-21.882-8.987
		C1669.583,1076.406,1668.532,1066.942,1672.653,1060.292z"/>
	<path stroke="#000000" stroke-width="0.5" d="M1523.324,1117.802c8.477-22.371,16.847-44.784,25.313-67.155
		c7.659-0.011,15.328,0.021,23.008-0.021c8.349,22.381,16.624,44.795,24.973,67.176c-7.266,0.053-14.521,0.032-21.776,0.011
		c-1.126-3.718-2.252-7.425-3.346-11.143c-7.85,0.032-15.7-0.011-23.539,0.021c-1.105,3.718-2.231,7.446-3.42,11.143
		C1537.452,1117.813,1530.388,1117.866,1523.324,1117.802 M1552.418,1092.053c4.886,0.032,9.783,0.021,14.691,0.011
		c-2.401-8.02-4.865-16.029-7.244-24.049C1557.315,1076.003,1554.989,1084.065,1552.418,1092.053z"/>
	<path stroke="#000000" stroke-width="0.5" d="M1738.958,1050.647c18.589,0,37.178,0,55.768,0c-0.011,4.78-0.011,9.56,0,14.34
		c-11.695,0.011-23.391-0.032-35.075,0.021c0.011,3.505,0.021,7.021-0.021,10.537c10.899,0.138,21.797,0.021,32.706,0.064
		c-0.011,4.6-0.011,9.199,0,13.809c-10.888,0-21.776-0.011-32.664,0c-0.011,4.419-0.011,8.838,0,13.267
		c12.035,0.021,24.07,0,36.116,0.011c-0.011,5.046,0,10.091-0.011,15.148c-18.94-0.021-37.88-0.011-56.809-0.011
		C1738.948,1095.442,1738.958,1073.05,1738.958,1050.647z"/>
	<path stroke="#000000" stroke-width="0.5" d="M1802.162,1050.647c21.064,0,42.128,0,63.203,0c-0.011,5.577,0,11.154,0,16.73
		c-7.085,0-14.16,0-21.234,0c-0.032,16.815,0,33.641-0.021,50.456c-6.905-0.011-13.799-0.011-20.693,0
		c-0.021-16.815-0.011-33.63-0.011-50.446c-7.085-0.021-14.16-0.011-21.234-0.011
		C1802.151,1061.801,1802.151,1056.224,1802.162,1050.647z"/>
	<path stroke="#000000" stroke-width="0.5" d="M1869.88,1050.647c21.064,0,42.129,0,63.203,0c-0.011,5.577,0,11.154-0.011,16.73
		c-7.085,0-14.16,0-21.234,0c-0.011,16.815,0,33.63,0,50.456c-6.915,0-13.82,0-20.714,0c0.011-16.805-0.043-33.609,0.032-50.403
		c-7.096-0.117-14.192-0.021-21.266-0.053C1869.869,1061.801,1869.869,1056.224,1869.88,1050.647z"/>
	<path stroke="#000000" stroke-width="0.5" d="M1942.643,1050.658c18.589-0.011,37.178-0.011,55.768,0
		c-0.011,4.77-0.011,9.55,0,14.33c-11.695,0.011-23.38-0.011-35.054,0.011c-0.011,3.527-0.011,7.064-0.011,10.601
		c10.888,0.021,21.776,0,32.675,0.011c-0.011,4.6-0.011,9.199,0,13.809c-10.899,0-21.787-0.011-32.664,0.011
		c0,4.419-0.021,8.849,0.021,13.278c12.025-0.021,24.06-0.021,36.095,0c0.011,5.003-0.064,10.017,0.053,15.031
		c-18.961,0.212-37.922,0.032-56.872,0.096C1942.633,1095.442,1942.643,1073.05,1942.643,1050.658z"/>
	<path fill="#FFFFFF" stroke="#FFFFFF" stroke-width="0.5" d="M659.988,1054.376c8.987-0.011,19.503-0.882,26.524,5.917
		c6.32,7.351,6.076,17.856,6.15,27.002c-0.223,8.498-0.892,18.887-8.732,24.07c-7.329,3.877-15.976,2.464-23.943,2.751
		C659.988,1094.199,659.998,1074.282,659.988,1054.376z"/>
	<path fill="#FFFFFF" stroke="#FFFFFF" stroke-width="0.5" d="M1552.418,1092.053c2.571-7.988,4.897-16.05,7.446-24.038
		c2.379,8.02,4.844,16.029,7.244,24.049C1562.202,1092.074,1557.305,1092.085,1552.418,1092.053z"/>
	<path stroke="#000000" stroke-width="0.5" d="M737.266,1087.029c14.871,0,29.743,0,44.614,0c0,7.967,0,15.934,0,23.901
		c-14.871,0-29.743,0-44.614,0C737.266,1102.963,737.266,1094.996,737.266,1087.029z"/>
	<path fill="#D7D1BC" stroke="#D7D1BC" stroke-width="0.5" d="M736.501,1315.559c54.408-0.35,108.826-0.053,163.234-0.149
		c325.386-0.011,650.76,0.011,976.146-0.011c37.21,101.423,74.41,202.856,111.493,304.321
		c-454.087,0.042-908.173,0.021-1362.249,0.011C662.271,1518.352,699.535,1417.014,736.501,1315.559 M927.863,1455.51
		c-6.809,2.326-11.833,9.103-11.876,16.327c0.011,15.243-0.032,30.497,0.021,45.751c0.234,8.764,7.861,16.497,16.613,16.868
		c14.192,0.117,28.372-0.011,42.564,0.053c10.134,1.476,20.682-6.554,20.735-17.028c0-15.222-0.011-30.444,0.011-45.666
		c0.053-8.87-7.595-16.922-16.465-17.229c-14.903-0.074-29.796,0.021-44.688-0.043C932.431,1454.49,930.052,1454.66,927.863,1455.51
		 M1628.581,1455.031c-7.563,1.753-13.406,8.987-13.384,16.773c0.021,15.232,0,30.465,0.011,45.698
		c0.095,9.103,8.381,17.07,17.474,16.985c15.286-0.011,30.593,0.074,45.889-0.042c8.753-0.393,16.359-8.158,16.55-16.932
		c0.064-14.882-0.011-29.775,0.032-44.657c0.478-9.316-7.446-18.069-16.805-18.281c-13.788-0.032-27.576,0-41.364-0.021
		C1634.168,1454.575,1631.311,1454.32,1628.581,1455.031 M795.232,1508.76c-19.811,3.42-36.169,20.554-38.655,40.503
		c-3.049,19.311,7.191,39.76,24.453,48.916c18.154,10.251,42.84,6.809,57.234-8.36c15.583-14.978,18.43-40.928,6.788-59.071
		C835.045,1514.071,814.31,1504.914,795.232,1508.76 M1820.273,1508.802c-5.343,1.02-10.484,3.006-15.179,5.736
		c-15.073,8.615-24.527,25.983-23.656,43.318c0.361,19.524,14.128,37.816,32.717,43.732c17.357,6.033,37.933,0.882,50.329-12.694
		c14-14.415,17.028-37.911,7.393-55.491C1862.455,1515.112,1840.434,1504.574,1820.273,1508.802z"/>
	<path stroke="#000000" stroke-width="0.5" d="M927.863,1455.51c2.188-0.85,4.568-1.02,6.915-0.967
		c14.893,0.064,29.785-0.032,44.688,0.043c8.87,0.308,16.518,8.36,16.465,17.229c-0.021,15.222-0.011,30.444-0.011,45.666
		c-0.053,10.474-10.601,18.504-20.735,17.028c-14.192-0.064-28.372,0.064-42.564-0.053c-8.753-0.372-16.38-8.105-16.613-16.868
		c-0.053-15.254-0.011-30.507-0.021-45.751C916.03,1464.613,921.054,1457.836,927.863,1455.51 M932.059,1468.193
		c-1.785,0.829-3.059,2.645-2.783,4.685c-0.011,14.542-0.043,29.073,0.011,43.616c-0.138,2.921,2.751,5.109,5.556,4.727
		c14.16-0.011,28.33,0.011,42.5-0.011c2.634,0.255,5.524-1.859,5.29-4.685c0.021-14.574,0.021-29.148,0-43.722
		c0.351-2.921-2.411-5.449-5.258-4.982C962.28,1468.097,947.069,1467.364,932.059,1468.193z"/>
	<path stroke="#000000" stroke-width="0.5" d="M1628.581,1455.031c2.73-0.712,5.587-0.457,8.402-0.478
		c13.788,0.021,27.576-0.011,41.364,0.021c9.358,0.212,17.283,8.965,16.805,18.281c-0.043,14.882,0.032,29.775-0.032,44.657
		c-0.191,8.774-7.797,16.539-16.55,16.932c-15.296,0.117-30.603,0.032-45.889,0.042c-9.093,0.085-17.378-7.882-17.474-16.985
		c-0.011-15.232,0.011-30.465-0.011-45.698C1615.176,1464.018,1621.018,1456.784,1628.581,1455.031 M1631.948,1467.916
		c-2.178,0.51-3.782,2.688-3.463,4.939c0,14.542-0.021,29.095,0.011,43.648c-0.266,2.836,2.624,4.95,5.29,4.706
		c14.5-0.011,28.999,0.064,43.499-0.032c2.486,0.053,4.653-2.252,4.557-4.716c0.042-14.51,0.021-29.031,0.011-43.541
		c0.425-3.038-2.592-5.566-5.481-5.088C1661.564,1467.906,1646.745,1467.725,1631.948,1467.916z"/>
	<path stroke="#000000" stroke-width="0.5" d="M795.232,1508.76c19.078-3.845,39.813,5.311,49.819,21.988
		c11.642,18.143,8.795,44.094-6.788,59.071c-14.393,15.169-39.08,18.61-57.234,8.36c-17.261-9.157-27.501-29.605-24.453-48.916
		C759.063,1529.314,775.421,1512.18,795.232,1508.76 M796.039,1522.25c-5.864,1.423-11.355,4.398-15.711,8.594
		c-11.026,10.102-14.245,27.671-7.085,40.896c7.383,15.137,26.673,23.125,42.49,16.975c16.497-5.471,26.907-24.591,22.031-41.374
		C833.558,1529.558,813.768,1517.406,796.039,1522.25z"/>
	<path stroke="#000000" stroke-width="0.5" d="M1820.273,1508.802c20.161-4.228,42.182,6.31,51.604,24.601
		c9.634,17.58,6.607,41.077-7.393,55.491c-12.396,13.575-32.972,18.727-50.329,12.694c-18.589-5.917-32.356-24.208-32.717-43.732
		c-0.871-17.336,8.583-34.703,23.656-43.318C1809.789,1511.808,1814.93,1509.822,1820.273,1508.802 M1821.951,1522.091
		c-12.12,2.635-22.413,12.226-25.834,24.156c-3.304,10.824-0.744,23.189,6.575,31.825c9.571,12.003,27.448,16.231,41.289,9.454
		c15.689-6.915,24.283-26.354,18.377-42.543C1857.175,1528.624,1838.692,1517.927,1821.951,1522.091z"/>
	<path opacity="0.75" stroke="#000000" stroke-width="0.5" enable-background="new    " d="M125.829,1632.681
		c13.979-1.062,28.064-0.159,42.086-0.457c771.888,0,1543.765-0.011,2315.642,0c5.896,0.117,11.844-0.467,17.708,0.584l-1.2,0.478
		H124.565L125.829,1632.681z"/>
</g>
</svg>
